<svg width="97" height="67" viewBox="0 0 97 67" fill="none" xmlns="http://www.w3.org/2000/svg">
<g clip-path="url(#clip0_405_4)">
<path fill-rule="evenodd" clip-rule="evenodd" d="M55.9188 6.43732C57.5756 6.43732 58.9188 7.78046 58.9188 9.43732V12.0152C58.9188 13.6721 60.2619 15.0152 61.9188 15.0152H80.4199C82.0768 15.0152 83.4199 16.3583 83.4199 18.0152V56.3343C83.4199 57.9911 82.0768 59.3343 80.4199 59.3343H17C15.3431 59.3343 14 57.9911 14 56.3343V15.0152V9.43732C14 7.78046 15.3431 6.43732 17 6.43732H55.9188Z" fill="#657182"/>
<path d="M20.7902 22.5084C21.0922 21.132 22.3114 20.1513 23.7205 20.1513H87.1161C88.9933 20.1513 90.4094 21.8559 90.0652 23.7013L83.8768 56.8843C83.612 58.3045 82.3724 59.3343 80.9277 59.3343H17C15.3431 59.3343 14 57.9911 14 56.3343V53.7821C14 53.5659 14.0234 53.3503 14.0697 53.1391L20.7902 22.5084Z" fill="#C7CBD2"/>
<path d="M75.762 48.2883C75.5819 48.5952 75.4869 48.9446 75.4869 49.3005V58.5785C75.4869 59.2263 75.1731 59.8341 74.6448 60.2092L67.4469 65.3203C66.1226 66.2606 64.2889 65.3138 64.2889 63.6896V49.3005C64.2889 48.9446 64.194 48.5952 64.0139 48.2883L52.2599 28.2573C51.4775 26.924 52.439 25.2451 53.9848 25.2451H85.791C87.3369 25.2451 88.2983 26.924 87.5159 28.2573L75.762 48.2883Z" fill="#DD4B77"/>
</g>
<defs>
<clipPath id="clip0_405_4">
<rect width="97" height="67" fill="white"/>
</clipPath>
</defs>
</svg>
