<svg width="173" height="111" viewBox="0 0 173 111" fill="none" xmlns="http://www.w3.org/2000/svg">
<mask id="path-1-outside-1_171_304" maskUnits="userSpaceOnUse" x="11" y="5" width="153" height="102" fill="black">
<rect fill="white" x="11" y="5" width="153" height="102"/>
<path fill-rule="evenodd" clip-rule="evenodd" d="M134.482 37.8481C127.601 19.7878 110.517 7 90.5311 7C73.4012 7 58.4029 16.3945 50.1336 30.4513L50.0799 30.4513C29.6012 30.4513 13 46.9504 13 67.3031C13 87.6558 29.6012 104.155 50.0799 104.155L50.1413 104.155H70.2007L70.2007 80.078C70.2007 77.1829 67.8538 74.836 64.9588 74.836C60.4288 74.836 58.0316 69.4778 61.0507 66.1005L78.2133 46.9017C82.9839 41.5652 91.3356 41.5652 96.1062 46.9017L113.269 66.1005C116.288 69.4778 113.891 74.836 109.361 74.836C106.466 74.836 104.119 77.1829 104.119 80.078V104.155H130.982V103.989C148.016 102.309 161.319 88.0249 161.319 70.6532C161.319 54.4909 149.804 41.0017 134.482 37.8481Z"/>
</mask>
<path d="M134.482 37.8481L132.613 38.5602L133.004 39.5858L134.079 39.807L134.482 37.8481ZM50.1336 30.4513L50.132 32.4513L51.2769 32.4522L51.8574 31.4654L50.1336 30.4513ZM50.0799 30.4513L50.0814 28.4513H50.0799V30.4513ZM50.0799 104.155L50.0799 106.155L50.0816 106.155L50.0799 104.155ZM50.1413 104.155L50.1413 102.155L50.1396 102.155L50.1413 104.155ZM70.2007 104.155V106.155H72.2007L72.2007 104.155L70.2007 104.155ZM70.2007 80.078L72.2007 80.078V80.078H70.2007ZM61.0507 66.1005L62.5418 67.4335L62.5418 67.4335L61.0507 66.1005ZM78.2133 46.9017L76.7222 45.5688L76.7222 45.5688L78.2133 46.9017ZM96.1062 46.9017L97.5972 45.5688L97.5972 45.5688L96.1062 46.9017ZM113.269 66.1005L114.76 64.7676L114.76 64.7676L113.269 66.1005ZM109.361 74.836L109.361 72.836H109.361V74.836ZM104.119 104.155H102.119V106.155H104.119V104.155ZM130.982 104.155V106.155H132.982V104.155H130.982ZM130.982 103.989L130.785 101.999L128.982 102.177V103.989H130.982ZM90.5311 9C109.632 9 126.007 21.2224 132.613 38.5602L136.351 37.136C129.194 18.3533 111.402 5 90.5311 5V9ZM51.8574 31.4654C59.7921 17.9774 74.1574 9 90.5311 9V5C72.6449 5 57.0136 14.8117 48.4098 29.4372L51.8574 31.4654ZM50.0783 32.4513L50.132 32.4513L50.1352 28.4513L50.0814 28.4513L50.0783 32.4513ZM15 67.3031C15 48.0666 30.6942 32.4513 50.0799 32.4513V28.4513C28.5083 28.4513 11 45.8342 11 67.3031H15ZM50.0799 102.155C30.6942 102.155 15 86.5397 15 67.3031H11C11 88.772 28.5083 106.155 50.0799 106.155V102.155ZM50.1396 102.155L50.0781 102.155L50.0816 106.155L50.143 106.155L50.1396 102.155ZM70.2007 102.155H50.1413V106.155H70.2007V102.155ZM72.2007 104.155L72.2007 80.078L68.2007 80.078L68.2007 104.155L72.2007 104.155ZM72.2007 80.078C72.2007 76.0784 68.9584 72.836 64.9588 72.836V76.836C66.7492 76.836 68.2007 78.2875 68.2007 80.078H72.2007ZM64.9588 72.836C62.1572 72.836 60.6746 69.5222 62.5418 67.4335L59.5596 64.7676C55.3887 69.4334 58.7004 76.836 64.9588 76.836V72.836ZM62.5418 67.4335L79.7044 48.2347L76.7222 45.5688L59.5596 64.7676L62.5418 67.4335ZM79.7044 48.2347C83.6798 43.7875 90.6396 43.7875 94.6151 48.2347L97.5972 45.5688C92.0316 39.3428 82.2879 39.3428 76.7222 45.5688L79.7044 48.2347ZM94.6151 48.2347L111.778 67.4335L114.76 64.7676L97.5972 45.5688L94.6151 48.2347ZM111.778 67.4335C113.645 69.5222 112.162 72.836 109.361 72.836L109.361 76.836C115.619 76.836 118.931 69.4334 114.76 64.7676L111.778 67.4335ZM109.361 72.836C105.361 72.836 102.119 76.0784 102.119 80.078H106.119C106.119 78.2875 107.57 76.836 109.361 76.836V72.836ZM102.119 80.078V104.155H106.119V80.078H102.119ZM130.982 102.155H104.119V106.155H130.982V102.155ZM128.982 103.989V104.155H132.982V103.989H128.982ZM159.319 70.6532C159.319 86.9763 146.816 100.417 130.785 101.999L131.178 105.98C149.215 104.2 163.319 89.0736 163.319 70.6532H159.319ZM134.079 39.807C148.498 42.7749 159.319 55.4673 159.319 70.6532H163.319C163.319 53.5145 151.11 39.2286 134.885 35.8891L134.079 39.807Z" fill="#172943" mask="url(#path-1-outside-1_171_304)"/>
</svg>
