<svg width="97" height="67" viewBox="0 0 97 67" fill="none" xmlns="http://www.w3.org/2000/svg">
<path fill-rule="evenodd" clip-rule="evenodd" d="M51.3089 15C52.8402 15 54.0817 16.2414 54.0817 17.7728C54.0817 19.3042 55.3231 20.5456 56.8545 20.5456H66.9217C68.5785 20.5456 69.9217 21.8888 69.9217 23.5456V46.1979C69.9217 47.8548 68.5785 49.1979 66.9217 49.1979H28.0416C26.3848 49.1979 25.0416 47.8548 25.0416 46.1979V20.5456V18C25.0416 16.3431 26.3848 15 28.0416 15H51.3089Z" fill="#657182"/>
<rect x="26.0625" y="21.6354" width="42.875" height="22.4583" rx="3" fill="white"/>
<path d="M23.2708 27.9471C23.125 26.198 24.5053 24.6979 26.2604 24.6979H68.7396C70.4947 24.6979 71.875 26.198 71.7292 27.9471L70.1876 46.4471C70.058 48.0019 68.7582 49.1979 67.1979 49.1979H27.8021C26.2418 49.1979 24.942 48.0019 24.8124 46.4471L23.2708 27.9471Z" fill="#C7CBD2"/>
<path d="M59 36.7108C64.0153 36.7108 68.0811 32.7461 68.0811 27.8554C68.0811 22.9647 64.0153 19 59 19C53.9847 19 49.9189 22.9647 49.9189 27.8554C49.9189 32.7461 53.9847 36.7108 59 36.7108Z" fill="#3880F8"/>
<path d="M44.2179 48.0292C43.8074 48.9956 43.4986 49.9975 43.2947 51.0194C42.9704 52.6442 44.3431 54 46 54H72C73.6569 54 75.0296 52.6442 74.7053 51.0194C74.5014 49.9975 74.1926 48.9956 73.7821 48.0292C72.978 46.1363 71.7994 44.4163 70.3137 42.9674C68.828 41.5186 67.0641 40.3694 65.1229 39.5853C63.1817 38.8012 61.1011 38.3976 59 38.3976C56.8989 38.3976 54.8183 38.8012 52.8771 39.5853C50.9359 40.3694 49.172 41.5186 47.6863 42.9674C46.2006 44.4163 45.022 46.1363 44.2179 48.0292Z" fill="#3880F8"/>
</svg>
