<svg width="173" height="111" viewBox="0 0 173 111" fill="none" xmlns="http://www.w3.org/2000/svg">
<path fill-rule="evenodd" clip-rule="evenodd" d="M134.482 37.8481C127.601 19.7878 110.517 7 90.5311 7C73.4012 7 58.4029 16.3945 50.1336 30.4513L50.0799 30.4513C29.6012 30.4513 13 46.9504 13 67.3031C13 87.6558 29.6012 104.155 50.0799 104.155L50.1413 104.155H70.2007L70.2007 80.078C70.2007 77.1829 67.8538 74.836 64.9588 74.836C60.4288 74.836 58.0316 69.4778 61.0507 66.1005L78.2133 46.9017C82.9839 41.5652 91.3356 41.5652 96.1062 46.9017L113.269 66.1005C116.288 69.4778 113.891 74.836 109.361 74.836C106.466 74.836 104.119 77.1829 104.119 80.078V104.155H130.982V103.989C148.016 102.309 161.319 88.0249 161.319 70.6532C161.319 54.4909 149.804 41.0017 134.482 37.8481Z" fill="#3880F8"/>
</svg>
