<svg width="96" height="67" viewBox="0 0 96 67" fill="none" xmlns="http://www.w3.org/2000/svg">
<g clip-path="url(#clip0_244_2)">
<path fill-rule="evenodd" clip-rule="evenodd" d="M57.8947 0C59.5516 0 60.8947 1.34314 60.8947 3V7.86486C60.8947 9.52172 62.2379 10.8649 63.8947 10.8649H88.9282C90.5851 10.8649 91.9282 12.208 91.9282 13.8649V64C91.9282 65.6568 90.5851 67 88.9282 67H7C5.34314 67 4 65.6568 4 64V10.8649V3C4 1.34315 5.34314 0 7 0H57.8947Z" fill="#657182"/>
<rect x="6" y="13" width="84" height="44" rx="3" fill="white"/>
<path d="M0.270761 22.2491C0.125006 20.5001 1.50528 19 3.2604 19H92.7396C94.4947 19 95.875 20.5001 95.7292 22.2491L92.2292 64.2491C92.0997 65.804 90.7999 67 89.2396 67H6.76039C5.20012 67 3.90032 65.804 3.77075 64.2491L0.270761 22.2491Z" fill="#C7CBD2"/>
</g>
<defs>
<clipPath id="clip0_244_2">
<rect width="96" height="67" fill="white"/>
</clipPath>
</defs>
</svg>
