<svg width="343" height="147" viewBox="0 0 343 147" fill="none" xmlns="http://www.w3.org/2000/svg">
<rect width="343" height="147" fill="#DD4B77"/>
<path d="M203.972 101C203.972 107.627 198.599 113 191.972 113H151C144.373 113 139 107.627 139 101V55.4289L160.429 34H191.972C198.599 34 203.972 39.3726 203.972 46V68.5" stroke="white" stroke-width="8" stroke-linecap="round" stroke-linejoin="round"/>
<path d="M159.189 93V90.0771H161.552C163.451 90.0771 165.115 89.796 166.531 89.2171L166.531 89.2171L166.534 89.216C167.964 88.6213 169.092 87.7809 169.892 86.683C170.698 85.5767 171.093 84.2708 171.093 82.7886C171.093 81.3071 170.699 80.0017 169.893 78.8957C169.093 77.7795 167.963 76.9376 166.53 76.3596C165.114 75.781 163.451 75.5 161.552 75.5H153C152.172 75.5 151.5 76.1716 151.5 77V93C151.5 93.8284 152.172 94.5 153 94.5H157.689C158.518 94.5 159.189 93.8284 159.189 93ZM162.848 83.947L162.848 83.9469L162.84 83.9538C162.537 84.2162 162.001 84.3971 161.127 84.3971H159.189V81.18H161.127C162.001 81.18 162.537 81.3609 162.84 81.6233L162.84 81.6234L162.848 81.6301C163.174 81.9016 163.348 82.2681 163.348 82.7886C163.348 83.309 163.174 83.6755 162.848 83.947ZM195.587 90.0971L195.589 90.0947C196.599 88.6457 197.096 86.9312 197.096 84.9743C197.096 83.0336 196.599 81.3352 195.587 79.9029C194.583 78.4822 193.193 77.3989 191.438 76.6469C189.681 75.8775 187.665 75.5 185.4 75.5H176.621C175.793 75.5 175.121 76.1716 175.121 77V93C175.121 93.8284 175.793 94.5 176.621 94.5H185.4C187.665 94.5 189.68 94.1312 191.436 93.3797L191.44 93.3779C193.194 92.6088 194.583 91.5173 195.587 90.0971ZM187.376 88.3246L187.371 88.3268C186.751 88.6155 186.004 88.7686 185.117 88.7686H183.311C183.034 88.7686 182.811 88.5447 182.811 88.2686V81.7314C182.811 81.4553 183.034 81.2314 183.311 81.2314H185.117C186.004 81.2314 186.751 81.3845 187.371 81.6733L187.376 81.6753C188.009 81.9627 188.489 82.3789 188.831 82.9252C189.168 83.4644 189.35 84.1393 189.35 84.9743C189.35 85.8266 189.168 86.52 188.829 87.0774C188.488 87.6224 188.008 88.0377 187.376 88.3246ZM209.062 88.7393C209.077 88.7398 209.093 88.74 209.108 88.74H215.838C216.666 88.74 217.338 88.0684 217.338 87.24V84.6629C217.338 83.8344 216.666 83.1629 215.838 83.1629H209.108C209.093 83.1629 209.077 83.1631 209.062 83.1636V81.5771C209.062 81.301 209.285 81.0771 209.562 81.0771H217C217.828 81.0771 218.5 80.4056 218.5 79.5771V77C218.5 76.1716 217.828 75.5 217 75.5H202.873C202.044 75.5 201.373 76.1716 201.373 77V93C201.373 93.8284 202.044 94.5 202.873 94.5H207.562C208.39 94.5 209.062 93.8284 209.062 93V88.7393Z" fill="white" stroke="white"/>
</svg>
