<svg width="343" height="147" viewBox="0 0 343 147" fill="none" xmlns="http://www.w3.org/2000/svg">
<rect width="343" height="147" fill="#DD4B77"/>
<rect x="100" y="42" width="40" height="8" rx="4" fill="white"/>
<rect x="83" y="56" width="52" height="8" rx="4" fill="white"/>
<rect x="61" y="70" width="70" height="8" rx="4" fill="white"/>
<rect x="83" y="84" width="52" height="8" rx="4" fill="white"/>
<rect x="100" y="98" width="40" height="8" rx="4" fill="white"/>
<rect x="243" y="106" width="40" height="8" rx="4" transform="rotate(-180 243 106)" fill="white"/>
<rect x="260" y="92" width="52" height="8" rx="4" transform="rotate(-180 260 92)" fill="white"/>
<rect x="282" y="78" width="70" height="8" rx="4" transform="rotate(-180 282 78)" fill="white"/>
<rect x="260" y="64" width="52" height="8" rx="4" transform="rotate(-180 260 64)" fill="white"/>
<rect x="243" y="50" width="40" height="8" rx="4" transform="rotate(-180 243 50)" fill="white"/>
<path d="M148.527 102.504L148.527 102.504L148.536 102.512C149.971 103.863 152.021 104.5 154.603 104.5C157.077 104.5 159.427 103.859 161.646 102.584C163.873 101.362 165.665 99.5925 167.019 97.2875C168.444 94.9038 169.146 92.0781 169.146 88.8307V58.3953L189.523 52.8252V84.0547C189.091 83.8757 188.635 83.7464 188.156 83.6663C187.409 83.4837 186.659 83.3919 185.909 83.3919C184.03 83.3919 182.245 83.8866 180.564 84.8678C178.888 85.7869 177.491 87.0433 176.376 88.6316L176.374 88.6351C175.301 90.1902 174.765 91.9359 174.765 93.8578C174.765 95.924 175.469 97.6473 176.89 98.9843C178.325 100.335 180.375 100.972 182.957 100.972C185.429 100.972 187.777 100.362 189.995 99.1469L189.995 99.147L190.004 99.1418C192.229 97.8621 194.019 96.0645 195.373 93.7598C196.798 91.3761 197.5 88.5504 197.5 85.303V42C197.5 41.846 197.429 41.7006 197.308 41.6059C197.186 41.5111 197.028 41.4776 196.879 41.515L161.637 50.3343C161.415 50.39 161.258 50.59 161.258 50.8193V87.6039C160.787 87.4145 160.302 87.2776 159.802 87.1941C159.055 87.0114 158.305 86.9196 157.555 86.9196C155.731 86.9196 153.949 87.4163 152.214 88.3935C150.535 89.3136 149.164 90.5728 148.106 92.1665C147.036 93.7208 146.5 95.4652 146.5 97.3855C146.5 99.4444 147.169 101.165 148.527 102.504Z" fill="white" stroke="white" stroke-linejoin="round"/>
</svg>
