<svg width="97" height="67" viewBox="0 0 97 67" fill="none" xmlns="http://www.w3.org/2000/svg">
<path fill-rule="evenodd" clip-rule="evenodd" d="M52.4929 3C54.1498 3 55.4929 4.34315 55.4929 6V8.49658C55.4929 10.1534 56.8361 11.4966 58.4929 11.4966H76.7619C78.4187 11.4966 79.7619 12.8397 79.7619 14.4966V52.3955C79.7619 54.0524 78.4187 55.3955 76.7619 55.3955H13.9999C12.3431 55.3955 11 54.0524 11 52.3955V11.4966V6C11 4.34315 12.3431 3 13.9999 3H52.4929Z" fill="#657182"/>
<path d="M17.7209 18.9411C18.0229 17.5647 19.2421 16.584 20.6512 16.584H83.3888C85.266 16.584 86.6821 18.2886 86.3379 20.134L80.2188 52.9455C79.9539 54.3658 78.7144 55.3955 77.2697 55.3955H14C12.3431 55.3955 11 54.0524 11 52.3955V49.8991C11 49.6829 11.0234 49.4673 11.0697 49.2561L17.7209 18.9411Z" fill="#C7CBD2"/>
<path d="M65.6122 44.5952C65.6122 45.6998 64.7168 46.5952 63.6122 46.5952H59.2823C58.1777 46.5952 57.2823 45.6998 57.2823 44.5952V42.0734C57.2823 40.1806 57.4932 38.7784 57.915 37.8671C58.407 36.8856 59.4615 35.5886 61.0782 33.9762L66.4558 28.6131C67.5805 27.4213 68.1429 25.879 68.1429 23.9861C68.1429 22.1634 67.5454 20.6561 66.3503 19.4643C65.2256 18.2725 63.7143 17.6766 61.8163 17.6766C59.9184 17.6766 58.3367 18.2725 57.0714 19.4643C56.2423 20.1993 55.6546 21.0999 55.3084 22.1661C54.9851 23.162 54.1527 23.9861 53.1056 23.9861H48.2392C47.0455 23.9861 46.1062 22.9425 46.371 21.7785C47.1231 18.4717 48.6865 15.8075 51.0612 13.7857C54.0136 11.2619 57.7041 10 62.1327 10C66.5612 10 70.1463 11.2269 72.8878 13.6806C75.6293 16.0642 77 19.3591 77 23.5655C77 26.4398 76.1565 28.8935 74.4694 30.9266C73.415 32.3287 72.0794 33.7659 70.4626 35.2381C68.7755 36.7804 67.6156 37.9372 66.983 38.7083C66.0692 39.9702 65.6122 41.5126 65.6122 43.3353V44.5952ZM55.9116 57.5317C55.9116 56.0595 56.4739 54.7976 57.5986 53.746C58.7234 52.6243 60.059 52.0635 61.6054 52.0635C63.1519 52.0635 64.4875 52.5893 65.6122 53.6409C66.737 54.6925 67.2993 55.9544 67.2993 57.4266C67.2993 58.9689 66.737 60.3009 65.6122 61.4226C64.5578 62.4742 63.2574 63 61.7109 63C60.1644 63 58.7937 62.4742 57.5986 61.4226C56.4739 60.3009 55.9116 59.004 55.9116 57.5317Z" fill="#DD4B77" stroke="#DD4B77" stroke-width="2"/>
</svg>
