<svg width="100" height="100" viewBox="0 0 100 100" fill="none" xmlns="http://www.w3.org/2000/svg">
<path fill-rule="evenodd" clip-rule="evenodd" d="M15 27.2313L25.375 84.2937C25.375 88.5912 34.6651 92.075 46.125 92.075C57.5849 92.075 66.875 88.5912 66.875 84.2937L66.875 84.2937L77.25 27.2313H15Z" fill="#657182"/>
<ellipse cx="46.125" cy="27.1571" rx="31.125" ry="7.70714" fill="#3E4D62"/>
<ellipse cx="46.125" cy="27.1571" rx="29.3464" ry="5.92857" fill="#172943"/>
<path fill-rule="evenodd" clip-rule="evenodd" d="M46.125 24.1929C63.3149 24.1929 77.25 20.7423 77.25 16.4857C77.25 16.4844 77.25 16.4831 77.25 16.4819V14.7072H76.4172C73.1746 11.3081 60.8428 8.77857 46.125 8.77857C31.4072 8.77857 19.0754 11.3081 15.8328 14.7072H15V16.4857C15 16.4857 15 16.4857 15 16.4857C15 20.7423 28.9352 24.1929 46.125 24.1929Z" fill="#657182"/>
<ellipse cx="46.125" cy="14.7071" rx="31.125" ry="7.70714" fill="#8B94A1"/>
<path d="M39.9001 8.77857C38.2629 8.77857 36.9358 10.1057 36.9358 11.7429V14.7071H39.3072C39.6346 14.7071 39.9001 14.4417 39.9001 14.1143V14.1143C39.9001 13.132 40.6964 12.3357 41.6786 12.3357H51.7572C52.7395 12.3357 53.5358 13.132 53.5358 14.1143V14.7071H55.5001C56.0524 14.7071 56.5001 14.2594 56.5001 13.7071V11.7429C56.5001 10.1057 55.1729 8.77857 53.5358 8.77857L39.9001 8.77857Z" fill="#3E4D62"/>
<path d="M36.3429 11.7429C36.3429 10.1057 37.6701 8.77857 39.3072 8.77857L52.9429 8.77857C54.58 8.77857 55.9072 10.1057 55.9072 11.7429V14.7071H53.9429C53.3906 14.7071 52.9429 14.2594 52.9429 13.7071V13.5214C52.9429 12.5392 52.1466 11.7429 51.1643 11.7429H41.0858C40.1035 11.7429 39.3072 12.5392 39.3072 13.5214V14.7071H37.3429C36.7906 14.7071 36.3429 14.2594 36.3429 13.7071V11.7429Z" fill="#657182"/>
<path d="M95.6826 50.246C98.7725 47.3643 98.7725 42.4851 95.6826 39.6034L92.7164 36.8371C89.896 34.2067 85.5072 34.2067 82.6868 36.837L61.9997 56.1303C61.0596 57.0071 59.5966 57.0071 58.6565 56.1303L51.6561 49.6016C48.8357 46.9713 44.4469 46.9713 41.6266 49.6016L38.6603 52.368C35.5704 55.2497 35.5704 60.1289 38.6603 63.0105L55.3133 78.5415C58.1337 81.1719 62.5225 81.1719 65.3429 78.5415L95.6826 50.246Z" fill="#0FA8B2"/>
</svg>
