<svg width="97" height="67" viewBox="0 0 97 67" fill="none" xmlns="http://www.w3.org/2000/svg">
<path d="M37.3171 36.9628C43.6599 36.9628 48.8018 31.8054 48.8018 25.4435C48.8018 19.0816 43.6599 13.9242 37.3171 13.9242C30.9743 13.9242 25.8324 19.0816 25.8324 25.4435C25.8324 31.8054 30.9743 36.9628 37.3171 36.9628Z" fill="#5894F9"/>
<path d="M18.6225 51.6859C17.9882 53.2219 17.5459 54.8266 17.3028 56.4636C17.0595 58.1025 18.4253 59.4528 20.0822 59.4528H54.552C56.2088 59.4528 57.5746 58.1025 57.3313 56.4636C57.0883 54.8266 56.646 53.2219 56.0117 51.6859C54.9948 49.2235 53.5043 46.9861 51.6253 45.1014C49.7463 43.2168 47.5157 41.7218 45.0607 40.7018C42.6056 39.6819 39.9744 39.1569 37.3171 39.1569C34.6598 39.1569 32.0285 39.6819 29.5735 40.7018C27.1185 41.7218 24.8878 43.2168 23.0088 45.1014C21.1299 46.9861 19.6394 49.2235 18.6225 51.6859Z" fill="#5894F9"/>
<path fill-rule="evenodd" clip-rule="evenodd" d="M71.5658 17.8554C71.5658 24.2173 66.4239 29.3747 60.0811 29.3747C53.7383 29.3747 48.5965 24.2173 48.5965 17.8554C48.5965 11.4935 53.7383 6.33616 60.0811 6.33616C66.4239 6.33616 71.5658 11.4935 71.5658 17.8554ZM59.1068 51.2607C59.274 51.6247 59.6342 51.8647 60.0349 51.8647H77.316C78.9729 51.8647 80.3387 50.5144 80.0954 48.8755C79.8524 47.2385 79.4101 45.6338 78.7757 44.0978C77.7588 41.6354 76.2684 39.398 74.3894 37.5133C72.5104 35.6287 70.2797 34.1337 67.8247 33.1138C65.3697 32.0938 62.7384 31.5688 60.0811 31.5688C57.4239 31.5688 54.7926 32.0938 52.3376 33.1138C49.8826 34.1337 47.6519 35.6287 45.7729 37.5133V37.5133C45.3254 37.9622 45.5269 38.711 46.1164 38.9441C46.244 38.9946 46.3712 39.0462 46.4981 39.0989C49.4089 40.3082 52.0538 42.0808 54.2816 44.3153C56.2883 46.328 57.9212 48.6801 59.1068 51.2607Z" fill="#35B7BF"/>
</svg>
