<svg width="94" height="94" viewBox="0 0 94 94" fill="none" xmlns="http://www.w3.org/2000/svg">
<ellipse cx="47.8866" cy="47.3844" rx="19.4091" ry="19.9819" fill="#3880F8"/>
<rect x="31.2501" y="54.9638" width="33.2728" height="12.4026" fill="#3880F8"/>
<ellipse cx="63.1364" cy="53.5858" rx="13.8637" ry="13.7806" fill="#3880F8"/>
<path d="M40.4347 50.8967C40.4347 52.0013 39.5392 52.8967 38.4347 52.8967L26.838 52.8967C25.7335 52.8967 24.838 52.0013 24.838 50.8967L24.8381 33.4908C24.8381 32.9385 24.3903 32.4908 23.8381 32.4908L19.2713 32.4908C18.4077 32.4908 17.9502 31.4698 18.5249 30.8252L31.1436 16.674C31.9389 15.7821 33.3338 15.7821 34.1291 16.674L46.7478 30.8252C47.3226 31.4698 46.865 32.4908 46.0014 32.4908L41.4347 32.4908C40.8824 32.4908 40.4347 32.9385 40.4347 33.4908L40.4347 50.8967Z" fill="#172943"/>
<ellipse cx="31.25" cy="52.2077" rx="15.25" ry="15.1587" fill="#3880F8"/>
<path d="M47.3666 45.2503C47.3666 44.1457 48.262 43.2503 49.3666 43.2503H60.9632C62.0678 43.2503 62.9632 44.1457 62.9632 45.2503V60.5892C62.9632 61.1414 63.4109 61.5892 63.9632 61.5892H68.53C69.3936 61.5892 69.8511 62.6101 69.2764 63.2547L56.6576 77.4059C55.8623 78.2979 54.4675 78.2979 53.6722 77.4059L41.0535 63.2547C40.4787 62.6101 40.9362 61.5892 41.7998 61.5892H46.3666C46.9189 61.5892 47.3666 61.1414 47.3666 60.5892V45.2503Z" fill="#172943"/>
</svg>
