<svg width="200" height="49" viewBox="0 0 200 49" fill="none" xmlns="http://www.w3.org/2000/svg">
<ellipse cx="23.9084" cy="24.2817" rx="14.5528" ry="14.9823" fill="#3880F8"/>
<rect x="11.4344" y="29.9646" width="24.9477" height="9.29938" fill="#3880F8"/>
<ellipse cx="35.3426" cy="28.9314" rx="10.3949" ry="10.3326" fill="#3880F8"/>
<path d="M18.321 26.4147C18.321 27.5193 17.4255 28.4147 16.321 28.4147L8.62672 28.4147C7.52215 28.4147 6.62672 27.5193 6.62672 26.4147L6.62672 14.1145C6.62672 13.5622 6.179 13.1145 5.62672 13.1145L3.01112 13.1145C2.14753 13.1145 1.69001 12.0935 2.26476 11.4489L10.9811 1.67399C11.7764 0.782091 13.1713 0.782092 13.9666 1.67399L22.6829 11.4489C23.2577 12.0935 22.8002 13.1145 21.9366 13.1145L19.321 13.1145C18.7687 13.1145 18.321 13.5622 18.321 14.1145L18.321 26.4147Z" fill="white"/>
<ellipse cx="11.4344" cy="27.8981" rx="11.4344" ry="11.3659" fill="#3880F8"/>
<path d="M23.5185 23.1819C23.5185 22.0774 24.4139 21.1819 25.5185 21.1819H33.2128C34.3173 21.1819 35.2128 22.0774 35.2128 23.1819V33.9323C35.2128 34.4846 35.6605 34.9323 36.2128 34.9323H38.8284C39.6919 34.9323 40.1495 35.9533 39.5747 36.5978L30.8584 46.3728C30.0631 47.2647 28.6682 47.2647 27.8729 46.3728L19.1566 36.5978C18.5818 35.9533 19.0393 34.9323 19.9029 34.9323H22.5185C23.0708 34.9323 23.5185 34.4846 23.5185 33.9323V23.1819Z" fill="white"/>
<path d="M61 33.6721V20.1202H64.092L64.393 21.9508C64.8308 21.2951 65.4055 20.776 66.1169 20.3934C66.8466 19.9927 67.6857 19.7923 68.6343 19.7923C70.7321 19.7923 72.2188 20.6029 73.0945 22.224C73.587 21.4772 74.2437 20.8852 75.0646 20.4481C75.9037 20.0109 76.8158 19.7923 77.8009 19.7923C79.5704 19.7923 80.9294 20.3206 81.878 21.377C82.8266 22.4335 83.3009 23.9818 83.3009 26.0219V33.6721H79.7984V26.3497C79.7984 25.184 79.5704 24.2914 79.1143 23.6721C78.6765 23.0528 77.9925 22.7432 77.0621 22.7432C76.1135 22.7432 75.3474 23.0893 74.7636 23.7814C74.1981 24.4736 73.9154 25.439 73.9154 26.6776V33.6721H70.4129V26.3497C70.4129 25.184 70.1849 24.2914 69.7288 23.6721C69.2728 23.0528 68.5704 22.7432 67.6219 22.7432C66.6915 22.7432 65.9345 23.0893 65.3507 23.7814C64.7852 24.4736 64.5025 25.439 64.5025 26.6776V33.6721H61Z" fill="white"/>
<path d="M91.7157 34C90.0192 34 88.7057 33.4718 87.7754 32.4153C86.8633 31.3588 86.4072 29.8106 86.4072 27.7705V20.1202H89.8823V27.4426C89.8823 28.6084 90.1195 29.5009 90.5938 30.1202C91.0681 30.7395 91.816 31.0492 92.8375 31.0492C93.8044 31.0492 94.5979 30.7031 95.2181 30.0109C95.8566 29.3188 96.1758 28.3534 96.1758 27.1148V20.1202H99.6783V33.6721H96.5863L96.3127 31.377C95.8931 32.1785 95.282 32.816 94.4793 33.2896C93.6949 33.7632 92.7737 34 91.7157 34Z" fill="white"/>
<path d="M103.274 33.6721V14H106.776V33.6721H103.274Z" fill="white"/>
<path d="M116.402 33.6721C114.979 33.6721 113.839 33.326 112.982 32.6339C112.125 31.9417 111.696 30.7122 111.696 28.9454V23.0437H109.37V20.1202H111.696L112.106 16.4863H115.198V20.1202H118.865V23.0437H115.198V28.9727C115.198 29.6284 115.335 30.0838 115.609 30.3388C115.901 30.5756 116.393 30.694 117.086 30.694H118.783V33.6721H116.402Z" fill="white"/>
<path d="M123.76 18.0164C123.122 18.0164 122.593 17.8251 122.173 17.4426C121.772 17.0601 121.571 16.5774 121.571 15.9945C121.571 15.4117 121.772 14.9381 122.173 14.5738C122.593 14.1913 123.122 14 123.76 14C124.399 14 124.919 14.1913 125.32 14.5738C125.739 14.9381 125.949 15.4117 125.949 15.9945C125.949 16.5774 125.739 17.0601 125.32 17.4426C124.919 17.8251 124.399 18.0164 123.76 18.0164ZM122.009 33.6721V20.1202H125.511V33.6721H122.009Z" fill="white"/>
<path d="M134.777 34C133.573 34 132.515 33.8087 131.602 33.4262C130.69 33.0255 129.961 32.4791 129.413 31.7869C128.866 31.0947 128.538 30.2933 128.428 29.3825H131.958C132.068 29.9107 132.359 30.3661 132.834 30.7486C133.326 31.1129 133.956 31.2951 134.722 31.2951C135.488 31.2951 136.044 31.1403 136.391 30.8306C136.756 30.5209 136.938 30.1658 136.938 29.765C136.938 29.1821 136.683 28.7905 136.172 28.5902C135.661 28.3716 134.95 28.1621 134.038 27.9617C133.454 27.8342 132.861 27.6794 132.259 27.4973C131.657 27.3151 131.101 27.0874 130.59 26.8142C130.097 26.5228 129.696 26.1585 129.386 25.7213C129.076 25.2659 128.921 24.7104 128.921 24.0546C128.921 22.8525 129.395 21.8415 130.344 21.0219C131.311 20.2022 132.66 19.7923 134.393 19.7923C135.999 19.7923 137.276 20.1658 138.224 20.9126C139.191 21.6594 139.766 22.6885 139.948 24H136.637C136.437 22.9982 135.68 22.4973 134.366 22.4973C133.709 22.4973 133.199 22.6248 132.834 22.8798C132.487 23.1348 132.314 23.4536 132.314 23.8361C132.314 24.2368 132.578 24.5556 133.107 24.7923C133.636 25.0291 134.339 25.2477 135.214 25.4481C136.163 25.6667 137.029 25.9126 137.814 26.1858C138.616 26.4408 139.255 26.8324 139.729 27.3607C140.204 27.8707 140.441 28.6084 140.441 29.5738C140.459 30.4117 140.24 31.1676 139.784 31.8415C139.328 32.5155 138.671 33.0437 137.814 33.4262C136.956 33.8087 135.944 34 134.777 34Z" fill="white"/>
<path d="M143.543 33.6721V14H147.046V22.1967C147.502 21.4499 148.113 20.867 148.879 20.4481C149.664 20.0109 150.557 19.7923 151.561 19.7923C153.239 19.7923 154.534 20.3206 155.446 21.377C156.377 22.4335 156.842 23.9818 156.842 26.0219V33.6721H153.367V26.3497C153.367 25.184 153.13 24.2914 152.655 23.6721C152.199 23.0528 151.47 22.7432 150.466 22.7432C149.481 22.7432 148.66 23.0893 148.004 23.7814C147.365 24.4736 147.046 25.439 147.046 26.6776V33.6721H143.543Z" fill="white"/>
<path d="M164.87 34C163.703 34 162.745 33.8179 161.997 33.4536C161.249 33.071 160.693 32.5701 160.328 31.9508C159.963 31.3315 159.781 30.6485 159.781 29.9016C159.781 28.6448 160.273 27.6248 161.258 26.8415C162.243 26.0583 163.721 25.6667 165.691 25.6667H169.139V25.3388C169.139 24.4098 168.874 23.7268 168.345 23.2896C167.816 22.8525 167.16 22.6339 166.375 22.6339C165.664 22.6339 165.043 22.8069 164.514 23.153C163.985 23.4809 163.657 23.9727 163.529 24.6284H160.109C160.2 23.6448 160.529 22.7887 161.094 22.0601C161.678 21.3315 162.426 20.776 163.338 20.3934C164.25 19.9927 165.271 19.7923 166.402 19.7923C168.336 19.7923 169.859 20.275 170.972 21.2404C172.085 22.2058 172.641 23.5719 172.641 25.3388V33.6721H169.659L169.33 31.4863C168.929 32.2149 168.363 32.816 167.634 33.2896C166.922 33.7632 166.001 34 164.87 34ZM165.664 31.2678C166.667 31.2678 167.442 30.9399 167.99 30.2842C168.555 29.6284 168.911 28.8179 169.057 27.8525H166.074C165.144 27.8525 164.478 28.0255 164.077 28.3716C163.675 28.6995 163.475 29.1093 163.475 29.6011C163.475 30.1293 163.675 30.5392 164.077 30.8306C164.478 31.122 165.007 31.2678 165.664 31.2678Z" fill="white"/>
<path d="M175.984 33.6721V20.1202H179.103L179.431 22.6612C179.924 21.7869 180.59 21.0947 181.429 20.5847C182.286 20.0565 183.29 19.7923 184.439 19.7923V23.4809H183.454C182.688 23.4809 182.003 23.5993 181.401 23.8361C180.799 24.0729 180.325 24.4827 179.979 25.0656C179.65 25.6485 179.486 26.459 179.486 27.4973V33.6721H175.984Z" fill="white"/>
<path d="M193.187 34C191.818 34 190.605 33.7086 189.547 33.1257C188.489 32.5428 187.659 31.7231 187.057 30.6667C186.455 29.6102 186.154 28.3898 186.154 27.0055C186.154 25.6029 186.446 24.3552 187.03 23.2623C187.632 22.1694 188.453 21.3224 189.493 20.7213C190.551 20.102 191.791 19.7923 193.214 19.7923C194.546 19.7923 195.722 20.0838 196.744 20.6667C197.765 21.2495 198.559 22.051 199.124 23.071C199.708 24.0729 200 25.1931 200 26.4317C200 26.6321 199.991 26.8415 199.973 27.0601C199.973 27.2787 199.964 27.5064 199.945 27.7432H189.629C189.702 28.7996 190.067 29.6284 190.724 30.2295C191.399 30.8306 192.211 31.1311 193.159 31.1311C193.871 31.1311 194.464 30.9763 194.938 30.6667C195.43 30.3388 195.795 29.9199 196.032 29.4098H199.59C199.334 30.2659 198.905 31.0492 198.303 31.7596C197.72 32.4517 196.99 32.9982 196.114 33.3989C195.257 33.7996 194.281 34 193.187 34ZM193.214 22.6339C192.357 22.6339 191.6 22.8798 190.943 23.3716C190.286 23.8452 189.867 24.5738 189.684 25.5574H196.443C196.388 24.6648 196.06 23.9545 195.458 23.4262C194.856 22.898 194.108 22.6339 193.214 22.6339Z" fill="white"/>
</svg>
