<svg width="97" height="67" viewBox="0 0 97 67" fill="none" xmlns="http://www.w3.org/2000/svg">
<g clip-path="url(#clip0_245_10)">
<path fill-rule="evenodd" clip-rule="evenodd" d="M53.8947 0C55.5516 0 56.8947 1.34314 56.8947 3V7.86486C56.8947 9.52172 58.2379 10.8649 59.8947 10.8649H84.9282C86.5851 10.8649 87.9282 12.208 87.9282 13.8649V64C87.9282 65.6568 86.5851 67 84.9282 67H3C1.34314 67 0 65.6568 0 64V10.8649V3C0 1.34315 1.34314 0 3 0H53.8947Z" fill="#657182"/>
<path d="M8.73845 19.7275C9.04043 18.3511 10.2596 17.3704 11.6687 17.3704H93.5726C95.4499 17.3704 96.8659 19.075 96.5218 20.9204L88.3851 64.55C88.1203 65.9703 86.8807 67 85.436 67H3C1.34314 67 0 65.6569 0 64V59.8808C0 59.6646 0.0233693 59.449 0.0697007 59.2379L8.73845 19.7275Z" fill="#C7CBD2"/>
</g>
<defs>
<clipPath id="clip0_245_10">
<rect width="97" height="67" fill="white"/>
</clipPath>
</defs>
</svg>
