<svg width="186" height="49" viewBox="0 0 186 49" fill="none" xmlns="http://www.w3.org/2000/svg">
<path d="M64.3722 33.2766H60.782V20.3452H63.5894L64.0213 21.9989C64.5971 21.4025 65.227 20.9326 65.9109 20.5892C66.5947 20.2458 67.3685 20.0741 68.2323 20.0741C70.0679 20.0741 71.3187 20.7428 71.9845 22.0802C72.5604 21.4477 73.2173 20.9597 73.9551 20.6163C74.6929 20.2548 75.4848 20.0741 76.3306 20.0741C77.6983 20.0741 78.742 20.4446 79.4619 21.1856C80.1997 21.9266 80.5686 23.002 80.5686 24.4117V33.2766H76.9784V24.8183C76.9784 24.2038 76.8255 23.7249 76.5195 23.3815C76.2316 23.02 75.7997 22.8393 75.2238 22.8393C74.7379 22.8393 74.243 22.9568 73.7391 23.1917C73.2532 23.4267 72.8303 23.761 72.4704 24.1948V33.2766H68.8802V24.8183C68.8802 24.2038 68.7272 23.7249 68.4213 23.3815C68.1334 23.02 67.7015 22.8393 67.1256 22.8393C66.6397 22.8393 66.1448 22.9749 65.6409 23.2459C65.155 23.499 64.7321 23.8514 64.3722 24.3032V33.2766Z" fill="#172943"/>
<path d="M92.136 20.3452H95.7262V33.2766H93.0538L92.6759 31.8127H92.5679C92.37 32.0115 92.136 32.2193 91.8661 32.4362C91.6141 32.635 91.3082 32.8248 90.9483 33.0055C90.6064 33.1682 90.2104 33.3037 89.7605 33.4122C89.3286 33.5206 88.8427 33.5748 88.3029 33.5748C86.9172 33.5748 85.8194 33.1863 85.0096 32.4091C84.2178 31.632 83.8218 30.4843 83.8218 28.9661V20.3452H87.4121V28.6679C87.4121 29.4451 87.592 30.0054 87.9519 30.3488C88.3299 30.6921 88.8068 30.8638 89.3826 30.8638C90.0305 30.8638 90.5794 30.7283 91.0293 30.4572C91.4972 30.1861 91.8661 29.8698 92.136 29.5083V20.3452Z" fill="#172943"/>
<path d="M99.0613 33.2766V13.9201H102.597V33.2766H99.0613Z" fill="#172943"/>
<path d="M113.632 22.9477H110.204V28.9119C110.204 29.5264 110.339 29.9511 110.609 30.1861C110.897 30.403 111.275 30.5114 111.743 30.5114C112.103 30.5114 112.472 30.4753 112.85 30.403C113.227 30.3307 113.533 30.2313 113.767 30.1048L114.307 32.626C114.001 32.7706 113.542 32.9152 112.931 33.0597C112.319 33.2043 111.671 33.2766 110.987 33.2766C109.421 33.2766 108.306 32.9694 107.64 32.3549C106.974 31.7223 106.641 30.7825 106.641 29.5355V22.9477H104.643V20.3452H106.641V16.36H110.204V20.3452H113.632V22.9477Z" fill="#172943"/>
<path d="M116.543 33.2766V20.3452H120.134V33.2766H116.543ZM118.352 17.58C117.74 17.58 117.263 17.4083 116.921 17.0649C116.579 16.7034 116.408 16.2606 116.408 15.7365C116.408 15.2124 116.579 14.7786 116.921 14.4352C117.263 14.0738 117.74 13.893 118.352 13.893C118.946 13.893 119.414 14.0738 119.756 14.4352C120.116 14.7786 120.295 15.2124 120.295 15.7365C120.295 16.2606 120.125 16.7034 119.783 17.0649C119.441 17.4083 118.964 17.58 118.352 17.58Z" fill="#172943"/>
<path d="M131.481 23.4357C130.419 22.9297 129.393 22.6766 128.404 22.6766C127.828 22.6766 127.378 22.776 127.054 22.9748C126.748 23.1737 126.595 23.4448 126.595 23.7881C126.595 24.1315 126.73 24.4117 127 24.6286C127.288 24.8454 127.855 25.0804 128.701 25.3334L129.51 25.5774C130.626 25.9027 131.472 26.3726 132.048 26.9871C132.624 27.6016 132.912 28.3968 132.912 29.3728C132.912 30.656 132.417 31.6771 131.427 32.4362C130.455 33.1953 129.132 33.5748 127.459 33.5748C125.749 33.5748 124.283 33.2676 123.059 32.6531L123.869 29.9963C124.391 30.2674 124.939 30.4933 125.515 30.6741C126.091 30.8367 126.676 30.9181 127.27 30.9181C127.99 30.9181 128.512 30.8096 128.836 30.5927C129.177 30.3578 129.348 30.0596 129.348 29.6981C129.348 29.3186 129.186 29.0294 128.863 28.8306C128.539 28.6137 127.927 28.3788 127.027 28.1257L126.19 27.8817C125.11 27.5203 124.319 27.0413 123.815 26.4449C123.311 25.8485 123.059 25.0533 123.059 24.0592C123.059 22.8845 123.5 21.9266 124.382 21.1856C125.263 20.4446 126.496 20.0741 128.08 20.0741C129.645 20.0741 131.031 20.3542 132.237 20.9145L131.481 23.4357Z" fill="#172943"/>
<path d="M139.082 33.2766H135.491V13.9201H139.082V21.5109C139.604 21.0952 140.197 20.7518 140.863 20.4807C141.547 20.2096 142.285 20.0741 143.077 20.0741C143.833 20.0741 144.489 20.1916 145.047 20.4265C145.623 20.6434 146.091 20.9597 146.451 21.3754C146.829 21.773 147.108 22.261 147.288 22.8393C147.468 23.3996 147.558 24.0141 147.558 24.6828V33.2766H143.968V25.3063C143.968 24.4207 143.788 23.7881 143.428 23.4086C143.068 23.0291 142.546 22.8393 141.862 22.8393C141.394 22.8393 140.908 22.9568 140.404 23.1917C139.918 23.4086 139.478 23.7068 139.082 24.0864V33.2766Z" fill="#172943"/>
<path d="M151.075 21.4838C151.849 21.032 152.668 20.6886 153.531 20.4536C154.395 20.2006 155.313 20.0741 156.285 20.0741C157.059 20.0741 157.76 20.1645 158.39 20.3452C159.038 20.5259 159.587 20.8151 160.037 21.2127C160.505 21.5922 160.856 22.0893 161.09 22.7038C161.342 23.3002 161.468 24.0231 161.468 24.8725V33.2766H158.687L158.363 31.9482H158.255C157.841 32.4543 157.31 32.8519 156.663 33.1411C156.033 33.4302 155.295 33.5748 154.449 33.5748C153.747 33.5748 153.126 33.4754 152.587 33.2766C152.047 33.0597 151.588 32.7796 151.21 32.4362C150.832 32.0748 150.544 31.65 150.346 31.1621C150.166 30.6741 150.076 30.1499 150.076 29.5897C150.076 28.8487 150.229 28.2161 150.535 27.692C150.859 27.1498 151.3 26.707 151.858 26.3636C152.416 26.0202 153.063 25.7672 153.801 25.6045C154.557 25.4419 155.367 25.3605 156.231 25.3605H157.85V24.5743C157.85 23.9779 157.661 23.5442 157.283 23.2731C156.924 22.9839 156.411 22.8393 155.745 22.8393C155.223 22.8393 154.683 22.9206 154.125 23.0833C153.585 23.2459 152.982 23.508 152.317 23.8695L151.075 21.4838ZM157.877 27.6106L156.717 27.6378C155.619 27.6739 154.854 27.8637 154.422 28.2071C153.99 28.5324 153.774 28.93 153.774 29.3999C153.774 30.0144 153.954 30.4391 154.314 30.6741C154.692 30.891 155.115 30.9994 155.583 30.9994C156.051 30.9994 156.492 30.8638 156.906 30.5927C157.337 30.3216 157.661 30.0054 157.877 29.6439V27.6106Z" fill="#172943"/>
<path d="M164.514 33.2766V20.3452H167.294L167.699 22.6766C168.005 21.9899 168.491 21.3844 169.157 20.8603C169.823 20.3361 170.66 20.0741 171.668 20.0741C172.081 20.0741 172.45 20.1193 172.774 20.2096C173.098 20.3 173.368 20.4084 173.584 20.535L172.99 23.3815C172.792 23.2731 172.54 23.1827 172.234 23.1104C171.928 23.02 171.569 22.9748 171.155 22.9748C170.273 22.9748 169.535 23.2731 168.941 23.8695C168.365 24.4478 168.077 25.4057 168.077 26.7431V33.2766H164.514Z" fill="#172943"/>
<path d="M185.819 27.7462H177.262V27.8546C177.262 28.8848 177.622 29.6529 178.342 30.159C179.062 30.665 179.989 30.9181 181.122 30.9181C181.842 30.9181 182.472 30.8458 183.012 30.7012C183.57 30.5566 184.074 30.3849 184.524 30.1861L185.172 32.7073C184.686 32.9423 184.074 33.1411 183.336 33.3037C182.598 33.4845 181.725 33.5748 180.718 33.5748C179.746 33.5748 178.828 33.4483 177.964 33.1953C177.118 32.9242 176.371 32.5175 175.724 31.9753C175.094 31.4331 174.59 30.7464 174.212 29.915C173.834 29.0836 173.645 28.0896 173.645 26.9329C173.645 25.9027 173.798 24.9719 174.104 24.1406C174.41 23.2911 174.842 22.5682 175.4 21.9718C175.976 21.3754 176.659 20.9145 177.451 20.5892C178.243 20.2458 179.125 20.0741 180.097 20.0741C181.842 20.0741 183.228 20.6072 184.254 21.6736C185.298 22.7399 185.819 24.2309 185.819 26.1467V27.7462ZM182.148 25.2792C182.148 24.9358 182.103 24.6014 182.013 24.2761C181.941 23.9508 181.815 23.6707 181.635 23.4357C181.455 23.1827 181.23 22.9839 180.96 22.8393C180.691 22.6947 180.358 22.6224 179.962 22.6224C179.242 22.6224 178.648 22.8664 178.18 23.3544C177.712 23.8424 177.433 24.502 177.343 25.3334L182.148 25.2792Z" fill="#172943"/>
<ellipse cx="23.9084" cy="24.2817" rx="14.5528" ry="14.9823" fill="#3880F8"/>
<rect x="11.4343" y="29.9646" width="24.9477" height="9.29938" fill="#3880F8"/>
<ellipse cx="35.3426" cy="28.9314" rx="10.3949" ry="10.3326" fill="#3880F8"/>
<path d="M18.321 26.4147C18.321 27.5193 17.4255 28.4147 16.321 28.4147L8.62672 28.4147C7.52215 28.4147 6.62672 27.5193 6.62672 26.4147L6.62672 14.1145C6.62672 13.5622 6.179 13.1145 5.62672 13.1145L3.01112 13.1145C2.14753 13.1145 1.69001 12.0935 2.26476 11.4489L10.9811 1.67399C11.7764 0.782083 13.1713 0.782084 13.9666 1.67399L22.6829 11.4489C23.2577 12.0935 22.8002 13.1145 21.9366 13.1145L19.321 13.1145C18.7687 13.1145 18.321 13.5622 18.321 14.1145L18.321 26.4147Z" fill="#172943"/>
<ellipse cx="11.4344" cy="27.8981" rx="11.4344" ry="11.3659" fill="#3880F8"/>
<path d="M23.5185 23.1819C23.5185 22.0773 24.4139 21.1819 25.5185 21.1819H33.2128C34.3173 21.1819 35.2128 22.0773 35.2128 23.1819V33.9323C35.2128 34.4846 35.6605 34.9323 36.2128 34.9323H38.8284C39.6919 34.9323 40.1495 35.9533 39.5747 36.5978L30.8584 46.3728C30.0631 47.2647 28.6682 47.2647 27.8729 46.3728L19.1566 36.5978C18.5818 35.9533 19.0393 34.9323 19.9029 34.9323H22.5185C23.0708 34.9323 23.5185 34.4846 23.5185 33.9323V23.1819Z" fill="#172943"/>
</svg>
