<svg width="343" height="147" viewBox="0 0 343 147" fill="none" xmlns="http://www.w3.org/2000/svg">
<rect width="343" height="147" fill="#172943"/>
<path d="M139.514 55.4289L136.686 52.6004C135.935 53.3506 135.514 54.368 135.514 55.4289H139.514ZM160.943 34V30C159.882 30 158.865 30.4214 158.114 31.1716L160.943 34ZM143.514 101V55.4289H135.514V101H143.514ZM151.514 109C147.096 109 143.514 105.418 143.514 101H135.514C135.514 109.837 142.677 117 151.514 117V109ZM192.486 109H151.514V117H192.486V109ZM200.486 101C200.486 105.418 196.904 109 192.486 109V117C201.323 117 208.486 109.837 208.486 101H200.486ZM200.486 46V101H208.486V46H200.486ZM192.486 38C196.904 38 200.486 41.5817 200.486 46H208.486C208.486 37.1634 201.323 30 192.486 30V38ZM160.943 38H192.486V30H160.943V38ZM158.114 31.1716L136.686 52.6004L142.342 58.2573L163.771 36.8284L158.114 31.1716Z" fill="#EAECEF"/>
<path d="M167.532 81.495C167.539 81.7662 167.761 81.9826 168.032 81.9826H174.461C174.729 81.9826 174.95 81.7703 174.96 81.5018L175.113 77.5209C177.585 77.4408 179.785 77.0091 181.704 76.215C183.797 75.3654 185.45 74.0643 186.647 72.3099C187.895 70.5379 188.5 68.3172 188.5 65.6829C188.5 63.1228 187.914 60.9274 186.713 59.1242C185.56 57.2988 183.95 55.9035 181.9 54.9391C179.887 53.9747 177.574 53.5 174.973 53.5C172.181 53.5 169.749 54.0119 167.692 55.0563L167.692 55.0563L167.689 55.0581C165.677 56.0993 164.125 57.5349 163.05 59.3657C161.975 61.196 161.463 63.2725 161.502 65.5801C161.507 65.8529 161.729 66.0716 162.002 66.0716H168.886C169.162 66.0716 169.386 65.8478 169.386 65.5716C169.386 63.9372 169.879 62.7073 170.821 61.8186L170.821 61.8186L170.828 61.8123C171.773 60.8886 173.112 60.3971 174.916 60.3971C176.636 60.3971 177.964 60.8847 178.953 61.8183L178.953 61.8184L178.959 61.8245C179.935 62.7126 180.446 63.9576 180.446 65.6273C180.446 67.4002 179.994 68.6643 179.167 69.5048C178.301 70.3856 177.126 70.9954 175.61 71.3131C174.056 71.6387 172.327 71.8032 170.422 71.8032H167.805C167.67 71.8032 167.541 71.8576 167.447 71.9541C167.353 72.0505 167.301 72.1809 167.305 72.3156L167.532 81.495ZM167.626 93.1336L167.626 93.1336L167.634 93.1412C168.609 94.0537 169.836 94.5 171.275 94.5C172.713 94.5 173.926 94.0536 174.867 93.1336C175.796 92.2251 176.269 91.1141 176.269 89.8275C176.269 88.5087 175.799 87.3777 174.867 86.4659C173.926 85.5458 172.713 85.0994 171.275 85.0994C169.836 85.0994 168.609 85.5457 167.634 86.4582L167.634 86.4581L167.626 86.4659C166.693 87.3777 166.224 88.5087 166.224 89.8275C166.224 91.1141 166.697 92.2251 167.626 93.1336Z" fill="#EAECEF" stroke="#EAECEF" stroke-linejoin="round"/>
</svg>
