<svg width="343" height="147" viewBox="0 0 343 147" fill="none" xmlns="http://www.w3.org/2000/svg">
<rect width="343" height="147" fill="#3880F8"/>
<path d="M158 74C165.732 74 172 67.7319 172 60C172 52.2681 165.732 46 158 46C150.268 46 144 52.2681 144 60C144 67.7319 150.268 74 158 74Z" fill="white"/>
<path fill-rule="evenodd" clip-rule="evenodd" d="M138 28C131.373 28 126 33.3726 126 40V107C126 113.627 131.373 119 138 119H205C211.627 119 217 113.627 217 107V40C217 33.3726 211.627 28 205 28H138ZM206.586 86.1326C207.846 87.3926 210 86.5002 210 84.7185V41C210 37.6863 207.314 35 204 35H139C135.686 35 133 37.6863 133 41V93.6719C133 95.4536 135.154 96.3459 136.414 95.0859L144.991 86.5088C149.678 81.8225 157.276 81.8225 161.962 86.5088L167.539 92.0859C168.32 92.8669 169.586 92.8669 170.367 92.0857L182.968 79.4854C187.654 74.7991 195.252 74.7991 199.939 79.4854L206.586 86.1326Z" fill="white"/>
</svg>
