<svg width="343" height="147" viewBox="0 0 343 147" fill="none" xmlns="http://www.w3.org/2000/svg">
<rect width="343" height="147" fill="#E8BD25"/>
<rect x="136" y="42" width="31" height="8" rx="4" fill="white"/>
<rect x="119" y="56" width="48" height="8" rx="4" fill="white"/>
<rect x="97" y="70" width="70" height="8" rx="4" fill="white"/>
<rect x="119" y="84" width="48" height="8" rx="4" fill="white"/>
<rect x="136" y="98" width="31" height="8" rx="4" fill="white"/>
<path d="M198.67 73.9011C204.873 73.9011 209.901 68.8729 209.901 62.6703C209.901 56.4678 204.873 51.4396 198.67 51.4396C192.468 51.4396 187.44 56.4678 187.44 62.6703C187.44 68.8729 192.468 73.9011 198.67 73.9011Z" fill="white"/>
<path fill-rule="evenodd" clip-rule="evenodd" d="M182.626 37C177.31 37 173 41.3099 173 46.6264V100.374C173 105.69 177.31 110 182.626 110H236.374C241.69 110 246 105.69 246 100.374V46.6264C246 41.3099 241.69 37 236.374 37H182.626ZM237.646 83.6338C238.656 84.6446 240.385 83.9288 240.385 82.4995V47.4286C240.385 44.7703 238.23 42.6154 235.571 42.6154H183.429C180.77 42.6154 178.615 44.7703 178.615 47.4286V89.6818C178.615 91.1111 180.344 91.827 181.354 90.8162L188.235 83.9356C191.994 80.1763 198.089 80.1763 201.849 83.9356L206.323 88.4096C206.949 89.0361 207.965 89.0361 208.591 88.4094L218.7 78.3014C222.459 74.5421 228.554 74.5421 232.313 78.3014L237.646 83.6338Z" fill="white"/>
</svg>
