<svg width="97" height="67" viewBox="0 0 97 67" fill="none" xmlns="http://www.w3.org/2000/svg">
<path d="M40.9419 35.6561C45.2475 35.6561 48.7379 32.1552 48.7379 27.8366C48.7379 23.518 45.2475 20.017 40.9419 20.017C36.6362 20.017 33.1458 23.518 33.1458 27.8366C33.1458 32.1552 36.6362 35.6561 40.9419 35.6561Z" fill="#5894F9"/>
<path d="M28.2516 45.6505C27.9441 46.395 27.7031 47.1633 27.5304 47.9463C27.1734 49.5643 28.5491 50.9228 30.206 50.9228H51.6778C53.3346 50.9228 54.7103 49.5643 54.3534 47.9463C54.1806 47.1633 53.9396 46.395 53.6322 45.6505C52.9419 43.979 51.9301 42.4602 50.6546 41.1808C49.3791 39.9015 47.8649 38.8867 46.1984 38.1943C44.5319 37.5019 42.7457 37.1456 40.9419 37.1456C39.1381 37.1456 37.3519 37.5019 35.6854 38.1943C34.0189 38.8867 32.5046 39.9015 31.2291 41.1808C29.9536 42.4602 28.9418 43.979 28.2516 45.6505Z" fill="#5894F9"/>
<path fill-rule="evenodd" clip-rule="evenodd" d="M64.1908 22.6856C64.1908 27.0042 60.7004 30.5052 56.3948 30.5052C52.0891 30.5052 48.5987 27.0042 48.5987 22.6856C48.5987 18.367 52.0891 14.8661 56.3948 14.8661C60.7004 14.8661 64.1908 18.367 64.1908 22.6856ZM55.6435 45.1696C55.8155 45.5315 56.1749 45.7719 56.5755 45.7719H67.1307C68.7875 45.7719 70.1632 44.4133 69.8063 42.7954C69.6335 42.0123 69.3925 41.244 69.0851 40.4995C68.3948 38.828 67.383 37.3092 66.1075 36.0299C64.832 34.7505 63.3178 33.7357 61.6513 33.0433C59.9847 32.351 58.1986 31.9946 56.3948 31.9946C54.5909 31.9946 52.8048 32.351 51.1382 33.0433C49.4717 33.7357 47.9575 34.7505 46.682 36.0299V36.0299C46.3782 36.3346 46.515 36.8429 46.9151 37.0011C47.0018 37.0354 47.0882 37.0704 47.1743 37.1062C49.1502 37.9271 50.9456 39.1304 52.4579 40.6472C53.7701 41.9633 54.8469 43.4932 55.6435 45.1696Z" fill="#35B7BF"/>
</svg>
