<svg width="100" height="100" viewBox="0 0 100 100" fill="none" xmlns="http://www.w3.org/2000/svg">
<path fill-rule="evenodd" clip-rule="evenodd" d="M55.8947 16C57.5516 16 58.8947 17.3431 58.8947 19V23.8649C58.8947 25.5217 60.2379 26.8649 61.8947 26.8649H86.9282C88.5851 26.8649 89.9282 28.208 89.9282 29.8649V80C89.9282 81.6568 88.5851 83 86.9282 83H5C3.34314 83 2 81.6568 2 80V26.8649V19C2 17.3431 3.34314 16 5 16H55.8947Z" fill="#657182"/>
<path d="M10.7384 35.7275C11.0404 34.3511 12.2596 33.3704 13.6687 33.3704H95.5726C97.4499 33.3704 98.8659 35.075 98.5218 36.9204L90.3851 80.55C90.1203 81.9703 88.8807 83 87.436 83H5C3.34314 83 2 81.6569 2 80V75.8808C2 75.6646 2.02337 75.449 2.0697 75.2379L10.7384 35.7275Z" fill="#C7CBD2"/>
</svg>
