<svg width="343" height="147" viewBox="0 0 343 147" fill="none" xmlns="http://www.w3.org/2000/svg">
<rect width="343" height="147" fill="#3880F8"/>
<path d="M136.398 89.8414C136.492 89.9371 136.62 89.991 136.754 89.991H149.652C149.854 89.991 150.036 89.8696 150.114 89.6833C150.192 89.497 150.15 89.2823 150.007 89.139L132.443 71.422L150.007 53.7841C150.149 53.6409 150.192 53.426 150.114 53.2395C150.037 53.0529 149.854 52.9313 149.652 52.9313H136.754C136.621 52.9313 136.493 52.9849 136.399 53.0801L118.644 71.07C118.452 71.2644 118.452 71.5768 118.643 71.7716L136.398 89.8414ZM156.614 108.865C156.572 109.016 156.602 109.177 156.697 109.302C156.791 109.427 156.939 109.5 157.095 109.5H166.968C167.192 109.5 167.388 109.351 167.449 109.135L187.433 38.1355C187.475 37.9848 187.445 37.8229 187.35 37.6981C187.255 37.5733 187.108 37.5 186.951 37.5H176.999C176.775 37.5 176.578 37.6492 176.518 37.865L156.614 108.865ZM193.992 89.1398C193.85 89.2833 193.809 89.4978 193.886 89.6838C193.964 89.8699 194.146 89.991 194.348 89.991H207.166C207.3 89.991 207.428 89.9374 207.522 89.8422L225.356 71.7724C225.548 71.5774 225.548 71.2638 225.355 71.0692L207.521 53.0793C207.427 52.9846 207.299 52.9313 207.166 52.9313H194.348C194.146 52.9313 193.964 53.0527 193.886 53.239C193.808 53.4253 193.85 53.64 193.993 53.7833L211.478 71.422L193.992 89.1398Z" fill="#172943" stroke="#172943" stroke-linejoin="round"/>
</svg>
