<svg width="97" height="67" viewBox="0 0 97 67" fill="none" xmlns="http://www.w3.org/2000/svg">
<path fill-rule="evenodd" clip-rule="evenodd" d="M55.9188 6.43732C57.5756 6.43732 58.9188 7.78046 58.9188 9.43732V12.0152C58.9188 13.6721 60.2619 15.0152 61.9188 15.0152H80.4199C82.0768 15.0152 83.4199 16.3583 83.4199 18.0152V56.3343C83.4199 57.9911 82.0768 59.3343 80.4199 59.3343H17C15.3431 59.3343 14 57.9911 14 56.3343V15.0152V9.43732C14 7.78046 15.3431 6.43732 17 6.43732H55.9188Z" fill="#657182"/>
<path d="M20.7902 22.5084C21.0922 21.132 22.3114 20.1513 23.7205 20.1513H87.1161C88.9933 20.1513 90.4094 21.8559 90.0652 23.7013L83.8768 56.8843C83.612 58.3045 82.3724 59.3343 80.9277 59.3343H17C15.3431 59.3343 14 57.9911 14 56.3343V53.7821C14 53.5659 14.0234 53.3503 14.0697 53.1391L20.7902 22.5084Z" fill="#C7CBD2"/>
<path fill-rule="evenodd" clip-rule="evenodd" d="M76.739 49.5262C71.5371 54.6794 63.1033 54.6794 57.9014 49.5262C52.6995 44.373 52.6995 36.0181 57.9014 30.8649C63.1033 25.7117 71.5371 25.7117 76.739 30.8649C81.7065 35.7859 81.9303 43.6267 77.4104 48.8108C77.4194 48.8185 77.4282 48.8266 77.4367 48.835L86.8555 58.1657C87.0482 58.3566 87.0482 58.666 86.8555 58.8569C86.6628 59.0477 86.3505 59.0477 86.1578 58.8569L76.739 49.5262ZM76.0413 31.556C80.8579 36.3275 80.8579 44.0636 76.0413 48.835C71.2248 53.6065 63.4156 53.6065 58.5991 48.835C53.7825 44.0636 53.7825 36.3275 58.5991 31.556C63.4156 26.7846 71.2248 26.7846 76.0413 31.556Z" fill="#172943" stroke="#DD4B77" stroke-width="7" stroke-linecap="round"/>
</svg>
