<svg width="343" height="147" viewBox="0 0 343 147" fill="none" xmlns="http://www.w3.org/2000/svg">
<rect width="343" height="147" fill="#3880F8"/>
<path d="M126.684 64.1295C126.742 64.348 126.94 64.5 127.167 64.5H132.2C132.424 64.5 132.621 64.3506 132.682 64.1346L136.96 48.8289L141.117 64.1311C141.177 64.3489 141.374 64.5 141.6 64.5H146.667C146.892 64.5 147.089 64.3497 147.149 64.1327L153.482 41.1327C153.523 40.9823 153.492 40.8211 153.398 40.697C153.303 40.5729 153.156 40.5 153 40.5H148.4C148.167 40.5 147.965 40.661 147.913 40.8882L144.168 57.2071L139.884 40.8732C139.826 40.6533 139.627 40.5 139.4 40.5H134.7C134.474 40.5 134.276 40.6516 134.217 40.8699L129.806 57.2358L126.054 40.8882C126.002 40.661 125.8 40.5 125.567 40.5H121C120.845 40.5 120.698 40.5723 120.603 40.6957C120.509 40.819 120.477 40.9793 120.517 41.1295L126.684 64.1295Z" fill="white" stroke="white" stroke-linejoin="round"/>
<rect x="162" y="41" width="52" height="8" rx="4" fill="white"/>
<rect x="162" y="56" width="61" height="8" rx="4" fill="white"/>
<rect x="121" y="70" width="85" height="8" rx="4" fill="white"/>
<rect x="121" y="84" width="71" height="8" rx="4" fill="white"/>
<rect x="121" y="98" width="49" height="8" rx="4" fill="white"/>
</svg>
