<svg width="343" height="147" viewBox="0 0 343 147" fill="none" xmlns="http://www.w3.org/2000/svg">
<rect width="343" height="147" fill="#3E4D62"/>
<rect x="151" y="41" width="63" height="8" rx="4" fill="#C7CBD2"/>
<rect x="151" y="56" width="72" height="8" rx="4" fill="#C7CBD2"/>
<rect x="121" y="70" width="85" height="8" rx="4" fill="#C7CBD2"/>
<rect x="121" y="84" width="71" height="8" rx="4" fill="#C7CBD2"/>
<rect x="121" y="98" width="49" height="8" rx="4" fill="#C7CBD2"/>
<path d="M123.532 63.8251C123.474 63.9787 123.496 64.1505 123.589 64.2851C123.683 64.4197 123.836 64.5 124 64.5H128.494C128.705 64.5 128.893 64.3676 128.964 64.169L130.757 59.1771H139.207L140.968 64.1664C141.038 64.3663 141.227 64.5 141.439 64.5H146C146.164 64.5 146.317 64.4197 146.411 64.2851C146.504 64.1505 146.526 63.9787 146.468 63.8251L137.883 40.8251C137.81 40.6296 137.623 40.5 137.415 40.5H132.585C132.377 40.5 132.19 40.6296 132.117 40.8251L123.532 63.8251ZM132.287 54.8914L134.969 47.3208L137.677 54.8914H132.287Z" fill="#C7CBD2" stroke="#C7CBD2" stroke-linejoin="round"/>
</svg>
