<svg width="26" height="26" viewBox="0 0 26 26" fill="none" xmlns="http://www.w3.org/2000/svg">
<path d="M5 9.16701C5 9.00984 5.06243 8.85912 5.17357 8.74797L9.74797 4.17357C9.85912 4.06243 10.0098 4 10.167 4H15.6667C15.9348 4 16.1892 4.05938 16.4172 4.16571C17.0426 4.45739 16.6194 5.18519 15.9292 5.18519H12.5374C12.3802 5.18519 12.2295 5.24761 12.1183 5.35876L7.54395 9.93316C7.4328 10.0443 7.37037 10.195 7.37037 10.3522V19.4074C7.37037 19.5014 7.37037 19.7528 7.37037 20C7.37037 20.3273 7.10506 20.5926 6.77778 20.5926C5.79593 20.5926 5 19.7967 5 18.8148V9.16701Z" fill="white"/>
<path d="M8.84845 10.2256C8.66091 10.4132 8.55556 10.6675 8.55556 10.9327V21.1852C8.55556 22.167 9.35149 22.963 10.3333 22.963H19.2222C20.2041 22.963 21 22.167 21 21.1852V8.14815C21 7.16631 20.2041 6.37038 19.2222 6.37038H13.1179C12.8527 6.37038 12.5983 6.47573 12.4108 6.66327L8.84845 10.2256Z" fill="white"/>
</svg>
