<svg width="26" height="26" viewBox="0 0 26 26" fill="none" xmlns="http://www.w3.org/2000/svg">
<path d="M13 2C13.5523 2 14 2.44772 14 3V9C14 9.55228 14.4477 10 15 10H21C21.5523 10 22 10.4477 22 11V22C22 24.1801 21.1302 24.9474 19 24.9474H7C4.86976 24.9474 4 24.1801 4 22V5C4 2.81993 4.86976 2 7 2H13Z" fill="#172943"/>
<path d="M16.9166 2C16.5287 2 16.2143 2.31443 16.2143 2.7023V6.92105C16.2143 7.47334 16.662 7.92105 17.2143 7.92105H21C21.5523 7.92105 22.0449 7.42788 21.7394 6.96776C21.7211 6.94023 21.7019 6.91455 21.6819 6.89109L17.8842 2.44934C17.64 2.16379 17.2873 2 16.9166 2V2Z" fill="#172943"/>
</svg>
