<svg fill="none" xmlns="http://www.w3.org/2000/svg">
<path d="M22.2973 16V10.2703C22.2973 8.61342 20.9542 7.27027 19.2973 7.27027H16.6216C15.9947 7.27027 15.4865 6.76205 15.4865 6.13514C15.4865 5.50822 14.9783 5 14.3514 5H5.27027C4.01644 5 3 6.01643 3 7.27027V16C3 17.6569 4.34315 19 6 19H10" stroke-width="2" stroke-linecap="round" stroke-linejoin="round"/>
<path d="M18.1863 18.1863L21 21" stroke-width="2" stroke-linecap="round"/>
<path d="M18.1213 13.8787C19.2929 15.0503 19.2929 16.9497 18.1213 18.1213C16.9497 19.2929 15.0503 19.2929 13.8787 18.1213C12.7071 16.9497 12.7071 15.0503 13.8787 13.8787C15.0503 12.7071 16.9497 12.7071 18.1213 13.8787Z" stroke-width="2"/>
</svg>
