<svg fill="none" xmlns="http://www.w3.org/2000/svg">
<path d="M6 5C5.44772 5 5 5.44771 5 6V11.1111C5 11.6634 5.44771 12.1111 6 12.1111H11.1111C11.6634 12.1111 12.1111 11.6634 12.1111 11.1111V6C12.1111 5.44772 11.6634 5 11.1111 5H6Z"/>
<path d="M6 13.8889C5.44772 13.8889 5 14.3366 5 14.8889V20C5 20.5523 5.44771 21 6 21H11.1111C11.6634 21 12.1111 20.5523 12.1111 20V14.8889C12.1111 14.3366 11.6634 13.8889 11.1111 13.8889H6Z"/>
<path d="M13.8889 6C13.8889 5.44771 14.3366 5 14.8889 5H20C20.5523 5 21 5.44772 21 6V11.1111C21 11.6634 20.5523 12.1111 20 12.1111H14.8889C14.3366 12.1111 13.8889 11.6634 13.8889 11.1111V6Z"/>
<path d="M14.8889 13.8889C14.3366 13.8889 13.8889 14.3366 13.8889 14.8889V20C13.8889 20.5523 14.3366 21 14.8889 21H20C20.5523 21 21 20.5523 21 20V14.8889C21 14.3366 20.5523 13.8889 20 13.8889H14.8889Z"/>
</svg>
