<svg width="26" height="26" viewBox="0 0 26 26" fill="none" xmlns="http://www.w3.org/2000/svg">
<path fill-rule="evenodd" clip-rule="evenodd" d="M21.9413 10.551C21.3468 10.2623 20.8306 9.80864 20.5249 9.22266C19.2136 6.7092 16.6343 5 13.667 5C10.974 5 8.60065 6.40772 7.20461 8.54675C7.15957 8.61576 7.08245 8.65717 7.00004 8.65717V8.65717C3.68631 8.65717 1 11.4202 1 14.8286C1 18.1597 3.56593 20.8744 6.77574 20.9958C6.77687 20.9958 6.77778 20.9967 6.77778 20.9979V20.9979C6.77778 20.999 6.77872 21 6.77989 21H6.98655L7.00004 21L7.01352 21H8.30012C9.40469 21 10.3001 20.1046 10.3001 19L10.3001 17.6692C10.3001 17.2005 9.92021 16.8206 9.45155 16.8206C8.72551 16.8206 8.33477 15.9681 8.80873 15.4181L11.4851 12.3124C12.2829 11.3865 13.7173 11.3865 14.5152 12.3124L17.1915 15.4181C17.6655 15.9681 17.2748 16.8206 16.5487 16.8206C16.0801 16.8206 15.7002 17.2005 15.7002 17.6692V19C15.7002 20.1045 16.5956 21 17.7002 21H20.1014C20.1068 21 20.1112 20.9956 20.1112 20.9902V20.9902C20.1112 20.9851 20.1151 20.9808 20.1202 20.9804C22.8535 20.7436 25.0001 18.3868 25.0001 15.5142C25.0001 13.3214 23.7492 11.4291 21.9413 10.551Z" fill="white"/>
</svg>
