<svg width="18" height="26" viewBox="0 0 18 26" fill="none" xmlns="http://www.w3.org/2000/svg">
<path fill-rule="evenodd" clip-rule="evenodd" d="M16.4776 5.03023C16.1871 4.86255 15.8158 4.96206 15.6481 5.25248L12.0049 11.5627C11.8372 11.8532 11.9367 12.2245 12.2271 12.3922C12.5175 12.5599 12.8889 12.4604 13.0566 12.1699L16.6998 5.85968C16.8675 5.56926 16.768 5.1979 16.4776 5.03023ZM10.719 2.86023L1.65415 18.561C1.41572 18.974 1.33269 19.4585 1.42003 19.9273L1.86191 22.299C1.91813 22.6008 2.23046 22.7811 2.51991 22.6789L4.79478 21.8757C5.24443 21.717 5.62256 21.4028 5.86099 20.9898L14.9258 5.28905C15.202 4.81076 15.0381 4.19916 14.5598 3.92302L12.085 2.4942C11.6067 2.21806 10.9951 2.38193 10.719 2.86023Z" fill="white"/>
</svg>
