<svg fill="none" xmlns="http://www.w3.org/2000/svg">
<path d="M6.46632 8.42857C5.19552 8.42857 4.24696 9.59829 4.50945 10.8417L6.53009 20.4131C6.72536 21.3381 7.5416 22 8.48695 22H16.7036C17.6489 22 18.4652 21.3381 18.6604 20.4131L20.6811 10.8417C20.9435 9.59829 19.995 8.42857 18.7242 8.42857H6.46632Z"/>
<path d="M14.8572 3.45238C14.8572 3.20254 14.6546 3 14.4048 3H10.7857C10.5359 3 10.3333 3.20254 10.3333 3.45238C10.3333 3.70222 10.1308 3.90476 9.88097 3.90476H6.26192C5.51239 3.90476 4.90478 4.51238 4.90478 5.2619C4.90478 6.01143 5.51239 6.61905 6.26192 6.61905H18.9286C19.6781 6.61905 20.2857 6.01143 20.2857 5.2619C20.2857 4.51238 19.6781 3.90476 18.9286 3.90476H15.3095C15.0597 3.90476 14.8572 3.70222 14.8572 3.45238Z"/>
</svg>
