<svg fill="none" xmlns="http://www.w3.org/2000/svg">
<path fill-rule="evenodd" clip-rule="evenodd" d="M17.0744 7.57988C17.0744 10.1093 15.0745 12.1598 12.6076 12.1598C10.1406 12.1598 8.1407 10.1093 8.1407 7.57988C8.1407 5.05049 10.1406 3 12.6076 3C15.0745 3 17.0744 5.05049 17.0744 7.57988ZM5.07233 18.7723C5.14785 18.5155 5.23596 18.2622 5.33646 18.0134C5.73198 17.0344 6.31169 16.1449 7.0425 15.3956C7.77331 14.6463 8.64092 14.0519 9.59577 13.6464C10.5506 13.2408 11.574 13.0321 12.6076 13.0321C13.6411 13.0321 14.6645 13.2408 15.6194 13.6464C16.5742 14.0519 17.4418 14.6463 18.1726 15.3956C18.4085 15.6375 18.6287 15.894 18.832 16.1634C19.0845 16.498 18.9353 16.9654 18.6389 17.2618C17.4872 18.4136 15.6198 18.4136 14.468 17.2618C13.546 16.3397 12.051 16.3397 11.129 17.2618C10.2069 18.1838 10.2069 19.6788 11.129 20.6008C11.3137 20.7856 11.1829 21.1014 10.9216 21.1014H7.09843C5.79445 21.1014 4.7045 20.0234 5.07233 18.7723ZM11.9318 17.9999C12.4072 17.5363 13.1656 17.5363 13.641 17.9999L15.8444 20.149C16.2328 20.5279 16.8525 20.5279 17.2409 20.149L19.4443 17.9999C19.9197 17.5363 20.6781 17.5363 21.1535 17.9999C21.6459 18.4803 21.6459 19.272 21.1535 19.7523L19.2285 21.6298C17.7344 23.0871 15.3508 23.0871 13.8568 21.6298L11.9318 19.7523C11.4394 19.272 11.4394 18.4803 11.9318 17.9999Z" />
</svg>
