<svg width="26" height="26" viewBox="0 0 26 26" fill="none" xmlns="http://www.w3.org/2000/svg">
<path d="M17.5829 8.81719L17.3979 5.46637C17.2627 3.01804 14.0872 2.01136 12.7064 4.19498L10.9322 7.00086C10.7926 7.22166 10.5536 7.30199 10.3457 7.24418L7.22896 6.37729C6.0087 6.03789 4.93985 6.63406 4.40409 7.49781C3.87095 8.35735 3.80462 9.56835 4.57674 10.5424L6.58079 13.0706C6.74742 13.2808 6.76542 13.5905 6.6183 13.8231L4.8854 16.5636C4.22544 17.6073 4.40746 18.7986 5.02346 19.5986C5.64292 20.4031 6.76218 20.88 7.9361 20.4232L11.0036 19.2294C11.2059 19.1507 11.4451 19.207 11.601 19.4037L13.6825 22.0296C15.3052 24.0767 18.3474 22.6657 18.2133 20.2372L18.0327 16.9644C18.0165 16.6723 18.1862 16.4342 18.4018 16.3503L21.3551 15.201C23.6524 14.307 23.5155 10.9072 21.1172 10.2402L18.0005 9.37326C17.786 9.31361 17.5987 9.10374 17.5829 8.81719Z" fill="#E8BD25" stroke="#EAECEF" stroke-width="2"/>
</svg>
