<svg width="26" height="26" viewBox="0 0 26 26" fill="none" xmlns="http://www.w3.org/2000/svg">
<path d="M10.7716 14.7391C11.2943 14.7391 11.7179 14.3326 11.7179 13.8312V8.95104C11.7179 8.70033 11.9298 8.49709 12.1911 8.49709L13.4287 8.49709C13.8373 8.49709 14.0538 8.03361 13.7818 7.74102L9.65766 3.30366C9.28135 2.89878 8.62139 2.89878 8.24508 3.30366L4.12093 7.74102C3.84899 8.03361 4.06547 8.49709 4.47408 8.49709H5.71165C5.97296 8.49709 6.1848 8.70033 6.1848 8.95104L6.1848 13.8312C6.1848 14.3326 6.60847 14.7391 7.1311 14.7391L10.7716 14.7391Z" fill="white"/>
<path d="M14.2284 10.2609C13.7057 10.2609 13.2821 10.6674 13.2821 11.1688V16.049C13.2821 16.2997 13.0702 16.5029 12.8089 16.5029H11.5713C11.1627 16.5029 10.9463 16.9664 11.2182 17.259L15.3423 21.6963C15.7186 22.1012 16.3786 22.1012 16.7549 21.6963L20.8791 17.259C21.151 16.9664 20.9345 16.5029 20.5259 16.5029H19.2884C19.027 16.5029 18.8152 16.2997 18.8152 16.049V11.1688C18.8152 10.6674 18.3915 10.2609 17.8689 10.2609H14.2284Z" fill="white"/>
</svg>
