<svg width="26" height="26" viewBox="0 0 26 26" fill="none" xmlns="http://www.w3.org/2000/svg">
<path d="M6.4663 8.42857C5.1955 8.42857 4.24694 9.59829 4.50944 10.8417L6.53007 20.4131C6.72534 21.3381 7.54158 22 8.48694 22H16.7035C17.6489 22 18.4651 21.3381 18.6604 20.4131L20.681 10.8417C20.9435 9.59829 19.995 8.42857 18.7242 8.42857H6.4663Z" fill="#172943"/>
<path fill-rule="evenodd" clip-rule="evenodd" d="M14.8572 3.45238C14.8572 3.20254 14.6546 3 14.4048 3H10.7857C10.5359 3 10.3333 3.20254 10.3333 3.45238V3.45238C10.3333 3.70222 10.1308 3.90476 9.88096 3.90476H6.26191C5.51238 3.90476 4.90477 4.51238 4.90477 5.2619V5.2619C4.90477 6.01143 5.51238 6.61905 6.26191 6.61905H18.9286C19.6781 6.61905 20.2857 6.01143 20.2857 5.2619V5.2619C20.2857 4.51238 19.6781 3.90476 18.9286 3.90476H15.3095C15.0597 3.90476 14.8572 3.70222 14.8572 3.45238V3.45238Z" fill="#172943"/>
</svg>
