<svg fill="none" xmlns="http://www.w3.org/2000/svg">
<path d="M8.96498 13.5419C11.1482 13.5419 12.9181 11.7667 12.9181 9.57691C12.9181 7.38709 11.1482 5.61188 8.96498 5.61188C6.78174 5.61188 5.01186 7.38709 5.01186 9.57691C5.01186 11.7667 6.78174 13.5419 8.96498 13.5419Z"/>
<path d="M2.53014 18.6097C1.9519 20.0099 3.22803 21.2832 4.74293 21.2832H13.187C14.7019 21.2832 15.9781 20.0099 15.3998 18.6097C15.0498 17.7622 14.5368 16.992 13.89 16.3433C13.2432 15.6946 12.4754 15.18 11.6304 14.829C10.7853 14.4779 9.87964 14.2972 8.96498 14.2972C8.05033 14.2972 7.14462 14.4779 6.29958 14.829C5.45455 15.18 4.68673 15.6946 4.03997 16.3433C3.39321 16.992 2.88017 17.7622 2.53014 18.6097Z"/>
<path d="M20.7537 6.96503C20.7537 9.15485 18.9838 10.9301 16.8005 10.9301C14.6173 10.9301 12.8474 9.15485 12.8474 6.96503C12.8474 4.77521 14.6173 3 16.8005 3C18.9838 3 20.7537 4.77521 20.7537 6.96503Z"/>
<path d="M16.2741 18.0746C16.4602 18.4295 16.8172 18.6713 17.2178 18.6713H21.0226C22.5375 18.6713 23.8136 17.3981 23.2354 15.9979C22.8853 15.1503 22.3723 14.3802 21.7255 13.7314C21.0788 13.0827 20.311 12.5682 19.4659 12.2171C18.6209 11.866 17.7152 11.6853 16.8005 11.6853C15.8859 11.6853 14.9802 11.866 14.1351 12.2171C13.2901 12.5682 12.5223 13.0827 11.8755 13.7314C11.7215 13.886 11.7908 14.1437 11.9937 14.2239C12.0377 14.2413 12.0815 14.2591 12.1252 14.2772C13.1271 14.6935 14.0375 15.3036 14.8043 16.0727C15.3929 16.6631 15.8881 17.3383 16.2741 18.0746Z"/>
</svg>
