<svg width="26" height="26" viewBox="0 0 26 26" fill="none" xmlns="http://www.w3.org/2000/svg">
<path d="M16.3787 4.12132C17.5503 2.94975 19.4498 2.94975 20.6213 4.12132L21.8787 5.37868C23.0503 6.55025 23.0503 8.44975 21.8787 9.62132L19.2071 12.2929C18.8166 12.6834 18.8166 13.3166 19.2071 13.7071L21.8787 16.3787C23.0503 17.5503 23.0503 19.4497 21.8787 20.6213L20.6213 21.8787C19.4498 23.0503 17.5503 23.0503 16.3787 21.8787L13.7071 19.2071C13.3166 18.8166 12.6834 18.8166 12.2929 19.2071L9.62135 21.8787C8.44977 23.0503 6.55028 23.0503 5.3787 21.8787L4.12135 20.6213C2.94977 19.4497 2.94977 17.5503 4.12134 16.3787L6.79292 13.7071C7.18344 13.3166 7.18344 12.6834 6.79292 12.2929L4.12134 9.62132C2.94977 8.44975 2.94977 6.55025 4.12135 5.37868L5.3787 4.12132C6.55028 2.94975 8.44977 2.94975 9.62135 4.12132L12.2929 6.79289C12.6834 7.18342 13.3166 7.18342 13.7071 6.79289L16.3787 4.12132Z" fill="#DD4B77"/>
</svg>
