<svg width="19" height="26" viewBox="0 0 19 26" fill="none" xmlns="http://www.w3.org/2000/svg">
<path d="M6.77164 14.7391C7.29427 14.7391 7.71794 14.3326 7.71794 13.8312V8.95104C7.71794 8.70033 7.92978 8.49709 8.19109 8.49709L9.42866 8.49709C9.83727 8.49709 10.0538 8.03361 9.78181 7.74102L5.65766 3.30366C5.28135 2.89878 4.62139 2.89878 4.24508 3.30366L0.120934 7.74102C-0.151011 8.03361 0.0654681 8.49709 0.474077 8.49709H1.71165C1.97296 8.49709 2.1848 8.70033 2.1848 8.95104L2.1848 13.8312C2.1848 14.3326 2.60847 14.7391 3.1311 14.7391L6.77164 14.7391Z" fill="#172943"/>
<path d="M10.2284 10.2609C9.70573 10.2609 9.28206 10.6674 9.28206 11.1688V16.049C9.28206 16.2997 9.07022 16.5029 8.80891 16.5029H7.57134C7.16273 16.5029 6.94625 16.9664 7.2182 17.259L11.3423 21.6963C11.7186 22.1012 12.3786 22.1012 12.7549 21.6963L16.8791 17.259C17.151 16.9664 16.9345 16.5029 16.5259 16.5029H15.2884C15.027 16.5029 14.8152 16.2997 14.8152 16.049V11.1688C14.8152 10.6674 14.3915 10.2609 13.8689 10.2609H10.2284Z" fill="#172943"/>
</svg>
