<svg width="26" height="26" viewBox="0 0 26 26" fill="none" xmlns="http://www.w3.org/2000/svg">
<path d="M25 15V16C25.4006 16 25.7625 15.7609 25.9198 15.3925C26.077 15.024 25.9992 14.5973 25.722 14.3081L25 15ZM13.5 3L14.222 2.30809C14.0334 2.11128 13.7726 2 13.5 2C13.2274 2 12.9666 2.11128 12.778 2.30809L13.5 3ZM21.1739 15V14C20.6216 14 20.1739 14.4477 20.1739 15H21.1739ZM21.1739 22V23C21.7262 23 22.1739 22.5523 22.1739 22H21.1739ZM17 22H16C16 22.5523 16.4477 23 17 23V22ZM17 16H18C18 15.4477 17.5523 15 17 15V16ZM13 16V15C12.4477 15 12 15.4477 12 16H13ZM13 22V23C13.5523 23 14 22.5523 14 22H13ZM5.47826 22H4.47826C4.47826 22.5523 4.92598 23 5.47826 23V22ZM5.47826 15H6.47826C6.47826 14.4477 6.03055 14 5.47826 14V15ZM2 15L1.27801 14.3081C1.00084 14.5973 0.923015 15.024 1.08024 15.3925C1.23747 15.7609 1.59941 16 2 16L2 15ZM25.722 14.3081L14.222 2.30809L12.778 3.69191L24.278 15.6919L25.722 14.3081ZM21.1739 16H25V14H21.1739V16ZM22.1739 22V15H20.1739V22H22.1739ZM17 23H21.1739V21H17V23ZM16 16V22H18V16H16ZM13 17H17V15H13V17ZM14 22V16H12V22H14ZM5.47826 23H13V21H5.47826V23ZM4.47826 15V22H6.47826V15H4.47826ZM2 16H5.47826V14H2V16ZM12.778 2.30809L1.27801 14.3081L2.72199 15.6919L14.222 3.69191L12.778 2.30809Z" fill="white"/>
</svg>
