<svg fill="none" xmlns="http://www.w3.org/2000/svg">
<path d="M6.38528 7C5.1412 7 4.19899 8.12372 4.41592 9.34874L6.54092 21.3487C6.71007 22.3039 7.54025 23 8.51028 23H16.4897C17.4598 23 18.2899 22.3039 18.4591 21.3487L20.5841 9.34874C20.801 8.12372 19.8588 7 18.6147 7H6.38528Z" stroke-width="2"/>
<path d="M20 4L15.4286 4C15.1787 4 14.9762 3.77614 14.9762 3.5C14.9762 3.22386 14.7737 3 14.5238 3H10.9048C10.6549 3 10.4524 3.22386 10.4524 3.5C10.4524 3.77614 10.2498 4 10 4L5 4" stroke-width="2" stroke-linecap="round"/>
</svg>
