<svg fill="none" xmlns="http://www.w3.org/2000/svg">
<path d="M17.3826 21.3202C17.1792 21.7362 16.7565 22 16.2933 22H10.1915C9.53344 22 9 21.4666 9 20.8085V20.8085C9 20.4698 9.14414 20.1472 9.39639 19.9211L10.4481 18.9788C10.8715 18.5994 11.1135 18.0578 11.1135 17.4893V14.7193C11.1135 14.0504 10.7791 13.4258 10.2224 13.0549L9.64365 12.6693C9.24155 12.4014 9 11.9502 9 11.467V11.467C9 10.8903 9.34302 10.3688 9.8726 10.1405L13.7195 8.48157C13.9115 8.39877 14.1184 8.35607 14.3275 8.35607V8.35607C15.1754 8.35607 15.8628 9.04345 15.8628 9.89138V18.5103C15.8628 19.0271 16.1972 19.4844 16.6897 19.641V19.641C17.38 19.8606 17.7142 20.6422 17.3959 21.293L17.3826 21.3202ZM13.5119 1C14.3034 1 14.9525 1.25087 15.4591 1.7526C15.9815 2.25434 16.2427 2.87746 16.2427 3.62197C16.2427 4.13988 16.0528 4.62543 15.6728 5.07861C15.3087 5.53179 14.8496 5.89595 14.2955 6.1711C13.7414 6.44624 13.2032 6.58381 12.6807 6.58381C11.905 6.58381 11.2559 6.33295 10.7335 5.83121C10.2111 5.32948 9.94987 4.71445 9.94987 3.98613C9.94987 3.46821 10.1319 2.98266 10.496 2.52948C10.876 2.06012 11.343 1.68786 11.8971 1.41272C12.4512 1.13757 12.9894 1 13.5119 1Z"/>
</svg>
