<svg width="18" height="26" viewBox="0 0 18 26" fill="none" xmlns="http://www.w3.org/2000/svg">
<path fill-rule="evenodd" clip-rule="evenodd" d="M16.4775 5.03023C16.1871 4.86255 15.8157 4.96206 15.6481 5.25248L12.0048 11.5627C11.8372 11.8532 11.9367 12.2245 12.2271 12.3922C12.5175 12.5599 12.8889 12.4604 13.0565 12.1699L16.6998 5.85968C16.8675 5.56926 16.7679 5.1979 16.4775 5.03023ZM10.719 2.86023L1.65412 18.561C1.41569 18.974 1.33266 19.4585 1.42 19.9273L1.86188 22.299C1.9181 22.6008 2.23043 22.7811 2.51988 22.6789L4.79475 21.8757C5.2444 21.717 5.62253 21.4028 5.86096 20.9898L14.9258 5.28905C15.2019 4.81076 15.0381 4.19916 14.5598 3.92302L12.085 2.4942C11.6067 2.21806 10.9951 2.38193 10.719 2.86023Z" fill="#172943"/>
</svg>
