<svg width="26" height="26" viewBox="0 0 26 26" fill="none" xmlns="http://www.w3.org/2000/svg">
<path d="M15.9412 7.13514C15.9412 6.50822 15.4145 6 14.7647 6H5.14908C3.96218 6 3 6.92837 3 8.07357V17.9264C3 18.2172 3.06203 18.494 3.17402 18.7452C3.33726 19.1113 3.85496 18.9438 4.14344 18.6654V18.6654L8.6244 14.3419C8.90416 14.072 8.90416 13.6344 8.6244 13.3644L7.97736 12.7401C7.54063 12.3187 7.82432 11.5973 8.44083 11.5614L14.9403 11.1837C15.7982 11.1338 16.5082 11.8189 16.4566 12.6467L16.065 18.9178C16.0279 19.5126 15.2801 19.7863 14.8434 19.3649L14.1964 18.7406C13.9166 18.4707 13.463 18.4707 13.1833 18.7406V18.7406C12.7092 19.1981 13.033 20 13.6918 20H20.8509C22.0378 20 23 19.0716 23 17.9264V10.3438C23 9.19864 22.0378 8.27027 20.8509 8.27027H17.1176C16.4679 8.27027 15.9412 7.76205 15.9412 7.13514Z" fill="#172943"/>
</svg>
