<svg width="26" height="26" viewBox="0 0 26 26" fill="none" xmlns="http://www.w3.org/2000/svg">
<path d="M22.2973 16V10.2703C22.2973 8.61342 20.9542 7.27027 19.2973 7.27027H16.6216C15.9947 7.27027 15.4865 6.76205 15.4865 6.13514C15.4865 5.50822 14.9783 5 14.3514 5H5.27027C4.01644 5 3 6.01643 3 7.27027V16C3 17.6569 4.34315 19 6 19H10" stroke="#172943" stroke-width="2" stroke-linecap="round" stroke-linejoin="round"/>
<path fill-rule="evenodd" clip-rule="evenodd" d="M18.2015 18.3355C16.7829 19.7848 14.4827 19.7848 13.064 18.3355C11.6453 16.8862 11.6453 14.5363 13.064 13.087C14.4827 11.6377 16.7829 11.6377 18.2015 13.087C19.5563 14.471 19.6174 16.6763 18.3847 18.1343C18.3871 18.1365 18.3895 18.1387 18.3918 18.1411L20.9606 20.7654C21.0131 20.819 21.0131 20.9061 20.9606 20.9597C20.908 21.0134 20.8229 21.0134 20.7703 20.9597L18.2015 18.3355ZM18.0113 13.2814C19.3249 14.6234 19.3249 16.7991 18.0113 18.1411C16.6977 19.4831 14.5679 19.4831 13.2543 18.1411C11.9407 16.7991 11.9407 14.6234 13.2543 13.2814C14.5679 11.9394 16.6977 11.9394 18.0113 13.2814Z" fill="#172943" stroke="#172943" stroke-width="2" stroke-linecap="round"/>
</svg>
