<svg width="26" height="26" viewBox="0 0 26 26" fill="none" xmlns="http://www.w3.org/2000/svg">
<path d="M13.5517 4.72943C14.3727 3.43106 16.3138 3.97096 16.3994 5.5215L16.5844 8.87231C16.6227 9.56641 17.0856 10.1567 17.7325 10.3367L20.8493 11.2036C22.3079 11.6093 22.4064 13.7188 20.9925 14.2691L18.0391 15.4184C17.4025 15.6661 16.9953 16.315 17.0342 17.0195L17.2149 20.2923C17.3008 21.8484 15.4202 22.612 14.4662 21.4084L12.3847 18.7825C11.963 18.2506 11.2623 18.0557 10.6409 18.2975L7.57343 19.4913C6.16743 20.0384 4.90665 18.4011 5.7306 17.0981L7.4635 14.3576C7.83655 13.7676 7.79641 12.9943 7.36445 12.4494L5.36039 9.9212C4.4009 8.71078 5.50235 6.93502 6.96099 7.34072L10.0778 8.20761C10.7247 8.38755 11.4099 8.11652 11.7774 7.53531L13.5517 4.72943Z" fill="#E8BD25"/>
</svg>
