<svg width="26" height="26" viewBox="0 0 26 26" fill="none" xmlns="http://www.w3.org/2000/svg">
<path d="M21.6673 9.11092C23.3241 9.11092 24.6673 10.4541 24.6673 12.1109V13.8891C24.6673 15.546 23.3241 16.8891 21.6673 16.8891H17.8891C17.3368 16.8891 16.8891 17.3368 16.8891 17.8891V21.6673C16.8891 23.3241 15.546 24.6673 13.8891 24.6673H12.1109C10.4541 24.6673 9.11094 23.3241 9.11094 21.6673L9.11094 17.8891C9.11094 17.3368 8.66322 16.8891 8.11094 16.8891H4.33277C2.67591 16.8891 1.33276 15.546 1.33276 13.8891L1.33276 12.1109C1.33276 10.4541 2.67591 9.11092 4.33276 9.11092H8.11094C8.66322 9.11092 9.11094 8.66321 9.11094 8.11092V4.33275C9.11094 2.67589 10.4541 1.33275 12.1109 1.33275H13.8891C15.546 1.33275 16.8891 2.6759 16.8891 4.33275V8.11092C16.8891 8.66321 17.3368 9.11092 17.8891 9.11092H21.6673Z" fill="white"/>
</svg>
