<svg width="26" height="26" viewBox="0 0 26 26" fill="none" xmlns="http://www.w3.org/2000/svg">
<path d="M14.0608 3.81048C15.0266 2.36784 17.3104 2.96774 17.4111 4.69055L17.6287 8.41368C17.6738 9.1849 18.2183 9.84083 18.9794 10.0408L22.6462 11.004C24.3622 11.4548 24.4782 13.7987 22.8146 14.4101L19.3401 15.6871C18.5912 15.9624 18.1121 16.6833 18.1579 17.4661L18.3704 21.1025C18.4715 22.8315 16.2591 23.68 15.1367 22.3427L12.6878 19.425C12.1918 18.834 11.3674 18.6174 10.6363 18.8861L7.02756 20.2125C5.37344 20.8205 3.89017 19.0012 4.85953 17.5534L6.89824 14.5084C7.33712 13.8529 7.2899 12.9937 6.7817 12.3882L4.42399 9.57911C3.29518 8.2342 4.591 6.26113 6.30705 6.71191L9.97384 7.67512C10.735 7.87506 11.541 7.57392 11.9734 6.92812L14.0608 3.81048Z" fill="white"/>
</svg>
