<svg fill="none" xmlns="http://www.w3.org/2000/svg">
<path d="M11.17 15.3569C11.7233 15.3569 12.1719 14.9291 12.1719 14.4012V9.26425C12.1719 9.00035 12.3962 8.78641 12.6729 8.78641L13.9833 8.78641C14.4159 8.78641 14.6451 8.29854 14.3572 7.99054L9.99046 3.31964C9.59202 2.89345 8.89323 2.89345 8.49479 3.31964L4.12805 7.99054C3.84011 8.29854 4.06932 8.78641 4.50196 8.78641H5.81233C6.08902 8.78641 6.31332 9.00035 6.31332 9.26425L6.31332 14.4012C6.31332 14.9291 6.76191 15.3569 7.31528 15.3569L11.17 15.3569Z"/>
<path d="M14.83 10.6431C14.2767 10.6431 13.8281 11.0709 13.8281 11.5988V16.7357C13.8281 16.9997 13.6038 17.2136 13.3271 17.2136H12.0167C11.5841 17.2136 11.3549 17.7015 11.6428 18.0095L16.0095 22.6804C16.408 23.1065 17.1068 23.1065 17.5052 22.6804L21.872 18.0095C22.1599 17.7015 21.9307 17.2136 21.498 17.2136H20.1877C19.911 17.2136 19.6867 16.9997 19.6867 16.7357V11.5988C19.6867 11.0709 19.2381 10.6431 18.6847 10.6431H14.83Z"/>
</svg>
