<svg width="26" height="26" viewBox="0 0 26 26" fill="none" xmlns="http://www.w3.org/2000/svg">
<path d="M10.5536 14.1038C12.439 14.1038 13.9674 12.5707 13.9674 10.6797C13.9674 8.78858 12.439 7.25555 10.5536 7.25555C8.66819 7.25555 7.13977 8.78858 7.13977 10.6797C7.13977 12.5707 8.66819 14.1038 10.5536 14.1038Z" fill="white"/>
<path d="M4.99661 18.4802V18.4802C4.49726 19.6894 5.59929 20.7889 6.90752 20.7889H14.1997C15.5079 20.7889 16.6099 19.6894 16.1106 18.4802V18.4802C15.8083 17.7483 15.3652 17.0832 14.8067 16.523C14.2482 15.9628 13.5851 15.5184 12.8554 15.2152C12.1256 14.912 11.3435 14.756 10.5536 14.756C9.76371 14.756 8.98157 14.912 8.25181 15.2152C7.52206 15.5184 6.85899 15.9628 6.30046 16.523C5.74194 17.0832 5.29889 17.7483 4.99661 18.4802Z" fill="white"/>
<path fill-rule="evenodd" clip-rule="evenodd" d="M20.7341 8.42411C20.7341 10.3152 19.2057 11.8482 17.3203 11.8482C15.4349 11.8482 13.9065 10.3152 13.9065 8.42411C13.9065 6.53303 15.4349 5 17.3203 5C19.2057 5 20.7341 6.53303 20.7341 8.42411ZM16.8233 17.9386C17.0138 18.291 17.3701 18.5334 17.7707 18.5334H20.9664C22.2746 18.5334 23.3766 17.4338 22.8773 16.2247C22.575 15.4927 22.132 14.8276 21.5734 14.2674C21.0149 13.7072 20.3518 13.2628 19.6221 12.9597C18.8923 12.6565 18.1102 12.5004 17.3203 12.5004C16.5304 12.5004 15.7483 12.6565 15.0185 12.9597C14.2888 13.2628 13.6257 13.7072 13.0672 14.2674V14.2674C12.9341 14.4009 12.994 14.6235 13.1693 14.6927C13.2072 14.7077 13.245 14.7231 13.2827 14.7387C14.148 15.0982 14.9341 15.6251 15.5964 16.2893C16.0834 16.7778 16.4963 17.3335 16.8233 17.9386Z" fill="white"/>
</svg>
