<svg fill="none" xmlns="http://www.w3.org/2000/svg">
<path fill-rule="evenodd" clip-rule="evenodd" d="M21.4776 5.03603C21.1871 4.86835 20.8158 4.96786 20.6481 5.25828L17.0049 11.5685C16.8372 11.859 16.9367 12.2303 17.2271 12.398C17.5175 12.5657 17.8889 12.4662 18.0566 12.1757L21.6998 5.86549C21.8675 5.57507 21.768 5.2037 21.4776 5.03603ZM15.719 2.86603L6.65415 18.5668C6.41572 18.9798 6.33269 19.4643 6.42003 19.9331L6.8619 22.3048C6.91813 22.6066 7.23046 22.7869 7.51991 22.6847L9.79478 21.8815C10.2444 21.7228 10.6226 21.4086 10.861 20.9956L19.9258 5.29485C20.202 4.81656 20.0381 4.20497 19.5598 3.92882L17.085 2.5C16.6067 2.22386 15.9951 2.38774 15.719 2.86603Z"/>
</svg>
