<svg width="26" height="26" viewBox="0 0 26 26" fill="none" xmlns="http://www.w3.org/2000/svg">
<path d="M7.29756 9.92365C7.49666 9.1806 7.84017 8.48404 8.30847 7.87374C8.77677 7.26344 9.36069 6.75135 10.0269 6.36672C10.6931 5.98209 11.4285 5.73244 12.1912 5.63203C12.9539 5.53162 13.7289 5.58242 14.472 5.78152C15.215 5.98062 15.9116 6.32413 16.5219 6.79243C17.1322 7.26072 17.6443 7.84465 18.0289 8.51085C18.4135 9.17705 18.6632 9.91249 18.7636 10.6752C18.864 11.4379 18.8132 12.2129 18.6141 12.9559" stroke="white" stroke-width="2" stroke-linecap="round" stroke-linejoin="round"/>
<path d="M18.7781 16.0763C18.579 16.8193 18.2355 17.5159 17.7672 18.1262C17.2989 18.7365 16.715 19.2486 16.0488 19.6332C15.3826 20.0178 14.6471 20.2675 13.8844 20.3679C13.1218 20.4683 12.3468 20.4175 11.6037 20.2184C10.8607 20.0193 10.1641 19.6758 9.55379 19.2075C8.94349 18.7392 8.43141 18.1553 8.04678 17.4891C7.66214 16.8229 7.4125 16.0874 7.31209 15.3248C7.21168 14.5621 7.26247 13.7871 7.46157 13.044" stroke="white" stroke-width="2" stroke-linecap="round" stroke-linejoin="round"/>
<path d="M15.3984 10.1393L17.8922 12.6331C18.2828 13.0236 18.9159 13.0236 19.3064 12.6331L21.8002 10.1393" stroke="white" stroke-width="2" stroke-linecap="round"/>
<path d="M10.7197 15.818L8.06695 13.1652C7.67643 12.7747 7.04326 12.7747 6.65274 13.1652L3.99996 15.818" stroke="white" stroke-width="2" stroke-linecap="round"/>
</svg>
