<svg width="26" height="26" viewBox="0 0 26 26" fill="none" xmlns="http://www.w3.org/2000/svg">
<path fill-rule="evenodd" clip-rule="evenodd" d="M20.6573 9.89879C19.5439 7.03076 16.7795 5 13.5455 5C10.7737 5 8.34676 6.49189 7.00868 8.72415L7.00001 8.72415C3.6863 8.72415 1 11.3443 1 14.5764C1 17.8084 3.6863 20.4286 7.00001 20.4286L7.00863 20.4286H14.153C14.1463 20.3819 14.1429 20.3342 14.1429 20.2857V18.5714C14.1429 18.0191 13.6951 17.5714 13.1429 17.5714H11.4286C10.8763 17.5714 10.4286 17.1237 10.4286 16.5714V14.8571C10.4286 14.3049 10.8763 13.8571 11.4286 13.8571H13.1429C13.6951 13.8571 14.1429 13.4094 14.1429 12.8571V11.1429C14.1429 10.5906 14.5906 10.1429 15.1429 10.1429H16.8571C17.4094 10.1429 17.8571 10.5906 17.8571 11.1429V12.8571C17.8571 13.4094 18.3049 13.8571 18.8571 13.8571H20.5714C21.1237 13.8571 21.5714 14.3049 21.5714 14.8571V16.5714C21.5714 17.1237 21.1237 17.5714 20.5714 17.5714H18.8571C18.3049 17.5714 17.8571 18.0191 17.8571 18.5714V20.2857C17.8571 20.3342 17.8537 20.3819 17.847 20.4286H20.0909V20.4023C22.8473 20.1353 25 17.8671 25 15.1084C25 12.5417 23.1366 10.3996 20.6573 9.89879Z" fill="#172943"/>
</svg>
