<svg fill="none" xmlns="http://www.w3.org/2000/svg">
<path d="M5 6C5 5.44772 5.44772 5 6 5H8.48C9.03228 5 9.48 5.44772 9.48 6V8.48C9.48 9.03228 9.03228 9.48 8.48 9.48H6C5.44772 9.48 5 9.03228 5 8.48V6Z"/>
<path d="M5 11.76C5 11.2077 5.44772 10.76 6 10.76H8.48C9.03228 10.76 9.48 11.2077 9.48 11.76V14.24C9.48 14.7923 9.03228 15.24 8.48 15.24H6C5.44772 15.24 5 14.7923 5 14.24V11.76Z"/>
<path d="M5 17.52C5 16.9677 5.44772 16.52 6 16.52H8.48C9.03228 16.52 9.48 16.9677 9.48 17.52V20C9.48 20.5523 9.03228 21 8.48 21H6C5.44772 21 5 20.5523 5 20V17.52Z"/>
<path d="M10.76 6C10.76 5.44772 11.2077 5 11.76 5H14.24C14.7923 5 15.24 5.44772 15.24 6V8.48C15.24 9.03228 14.7923 9.48 14.24 9.48H11.76C11.2077 9.48 10.76 9.03228 10.76 8.48V6Z"/>
<path d="M16.52 6C16.52 5.44772 16.9677 5 17.52 5H20C20.5523 5 21 5.44772 21 6V8.48C21 9.03228 20.5523 9.48 20 9.48H17.52C16.9677 9.48 16.52 9.03228 16.52 8.48V6Z"/>
<path d="M10.76 11.76C10.76 11.2077 11.2077 10.76 11.76 10.76H14.24C14.7923 10.76 15.24 11.2077 15.24 11.76V14.24C15.24 14.7923 14.7923 15.24 14.24 15.24H11.76C11.2077 15.24 10.76 14.7923 10.76 14.24V11.76Z"/>
<path d="M10.76 17.52C10.76 16.9677 11.2077 16.52 11.76 16.52H14.24C14.7923 16.52 15.24 16.9677 15.24 17.52V20C15.24 20.5523 14.7923 21 14.24 21H11.76C11.2077 21 10.76 20.5523 10.76 20V17.52Z"/>
<path d="M16.52 11.76C16.52 11.2077 16.9677 10.76 17.52 10.76H20C20.5523 10.76 21 11.2077 21 11.76V14.24C21 14.7923 20.5523 15.24 20 15.24H17.52C16.9677 15.24 16.52 14.7923 16.52 14.24V11.76Z"/>
<path d="M16.52 17.52C16.52 16.9677 16.9677 16.52 17.52 16.52H20C20.5523 16.52 21 16.9677 21 17.52V20C21 20.5523 20.5523 21 20 21H17.52C16.9677 21 16.52 20.5523 16.52 20V17.52Z"/>
</svg>
