<svg fill="none" xmlns="http://www.w3.org/2000/svg">
<path d="M7.29762 9.92367C7.49672 9.18062 7.84023 8.48405 8.30853 7.87375C8.77683 7.26345 9.36075 6.75137 10.027 6.36674C10.6932 5.9821 11.4286 5.73246 12.1913 5.63205C12.954 5.53164 13.729 5.58243 14.472 5.78153C15.2151 5.98063 15.9116 6.32414 16.5219 6.79244C17.1322 7.26074 17.6443 7.84466 18.0289 8.51087C18.4136 9.17707 18.6632 9.91251 18.7636 10.6752C18.864 11.4379 18.8132 12.2129 18.6141 12.9559" stroke-width="2" stroke-linecap="round" stroke-linejoin="round"/>
<path d="M18.7782 16.0763C18.5791 16.8193 18.2356 17.5159 17.7673 18.1262C17.299 18.7365 16.715 19.2486 16.0488 19.6332C15.3826 20.0178 14.6472 20.2675 13.8845 20.3679C13.1218 20.4683 12.3468 20.4175 11.6038 20.2184C10.8607 20.0193 10.1642 19.6758 9.55385 19.2075C8.94355 18.7392 8.43147 18.1553 8.04684 17.4891C7.6622 16.8229 7.41256 16.0874 7.31215 15.3248C7.21174 14.5621 7.26253 13.7871 7.46163 13.044" stroke-width="2" stroke-linecap="round" stroke-linejoin="round"/>
<path d="M15.3985 10.1393L17.8923 12.6331C18.2828 13.0237 18.916 13.0237 19.3065 12.6331L21.8003 10.1393" stroke-width="2" stroke-linecap="round"/>
<path d="M10.7198 15.818L8.06701 13.1652C7.67649 12.7747 7.04332 12.7747 6.6528 13.1652L4.00002 15.818" stroke-width="2" stroke-linecap="round"/>
</svg>
