<svg width="26" height="26" viewBox="0 0 26 26" fill="none" xmlns="http://www.w3.org/2000/svg">
<path fill-rule="evenodd" clip-rule="evenodd" d="M16.5819 5.41654C16.5819 4.6342 15.9477 4 15.1654 4H3.83307C2.26841 4 1 5.26841 1 6.83307V18.4706C1 20.1275 2.34314 21.4706 4 21.4706H15V19C15 18.4477 14.5523 18 14 18H12C11.4477 18 11 17.5523 11 17V15C11 14.4477 11.4477 14 12 14H14C14.5523 14 15 13.5523 15 13V11C15 10.4477 15.4477 10 16 10H18C18.5523 10 19 10.4477 19 11V13C19 13.5523 19.4477 14 20 14H22C22.5523 14 23 14.4477 23 15V17C23 17.5523 22.5523 18 22 18H20C19.4477 18 19 18.4477 19 19V21.4706H22.0811C23.738 21.4706 25.0811 20.1275 25.0811 18.4706V9.83307C25.0811 8.17622 23.738 6.83307 22.0811 6.83307H17.9984C17.2161 6.83307 16.5819 6.19887 16.5819 5.41654Z" fill="white"/>
</svg>
