<svg fill="none" xmlns="http://www.w3.org/2000/svg">
<path d="M11.2716 15.2391C11.7943 15.2391 12.2179 14.8326 12.2179 14.3312V9.45104C12.2179 9.20033 12.4298 8.99709 12.6911 8.99709L13.9287 8.99709C14.3373 8.99709 14.5538 8.53361 14.2818 8.24102L10.1577 3.80366C9.78135 3.39878 9.12139 3.39878 8.74508 3.80366L4.62093 8.24102C4.34899 8.53361 4.56547 8.99709 4.97408 8.99709H6.21165C6.47296 8.99709 6.6848 9.20033 6.6848 9.45104L6.6848 14.3312C6.6848 14.8326 7.10847 15.2391 7.6311 15.2391L11.2716 15.2391Z"/>
<path d="M14.7284 10.7609C14.2057 10.7609 13.7821 11.1674 13.7821 11.6688V16.549C13.7821 16.7997 13.5702 17.0029 13.3089 17.0029H12.0713C11.6627 17.0029 11.4463 17.4664 11.7182 17.759L15.8423 22.1963C16.2186 22.6012 16.8786 22.6012 17.2549 22.1963L21.3791 17.759C21.651 17.4664 21.4345 17.0029 21.0259 17.0029H19.7884C19.527 17.0029 19.3152 16.7997 19.3152 16.549V11.6688C19.3152 11.1674 18.8915 10.7609 18.3689 10.7609H14.7284Z"/>
</svg>
