<svg width="26" height="26" viewBox="0 0 26 26" fill="none" xmlns="http://www.w3.org/2000/svg">
<path fill-rule="evenodd" clip-rule="evenodd" d="M12.778 3.75338C13.1717 3.34259 13.8283 3.34259 14.222 3.75338L23.3786 13.3081C23.9879 13.9439 23.5373 15 22.6566 15H22.1739C21.6216 15 21.1739 15.4477 21.1739 16V21C21.1739 21.5523 20.7262 22 20.1739 22H18C17.4477 22 17 21.5523 17 21V17C17 16.4477 16.5523 16 16 16H14C13.4477 16 13 16.4477 13 17V21C13 21.5523 12.5523 22 12 22H6.47826C5.92598 22 5.47826 21.5523 5.47826 21V16C5.47826 15.4477 5.03055 15 4.47826 15H4.3434C3.46271 15 3.01206 13.9439 3.62141 13.3081L12.778 3.75338Z" fill="white"/>
</svg>
