<svg width="26" height="26" viewBox="0 0 26 26" fill="none" xmlns="http://www.w3.org/2000/svg">
<path d="M8.96502 13.5419C11.1483 13.5419 12.9181 11.7667 12.9181 9.5769C12.9181 7.38708 11.1483 5.61188 8.96502 5.61188C6.78178 5.61188 5.0119 7.38708 5.0119 9.5769C5.0119 11.7667 6.78178 13.5419 8.96502 13.5419Z" fill="#172943"/>
<path d="M2.53018 18.6097C1.95194 20.0099 3.22807 21.2832 4.74297 21.2832H13.1871C14.702 21.2832 15.9781 20.0099 15.3999 18.6097C15.0498 17.7622 14.5368 16.992 13.89 16.3433C13.2433 15.6946 12.4755 15.18 11.6304 14.829C10.7854 14.4779 9.87968 14.2972 8.96502 14.2972C8.05037 14.2972 7.14466 14.4779 6.29962 14.829C5.45459 15.18 4.68677 15.6946 4.04 16.3433C3.39325 16.992 2.88021 17.7622 2.53018 18.6097Z" fill="#172943"/>
<path fill-rule="evenodd" clip-rule="evenodd" d="M20.7538 6.96503C20.7538 9.15485 18.9839 10.9301 16.8007 10.9301C14.6174 10.9301 12.8476 9.15485 12.8476 6.96503C12.8476 4.77521 14.6174 3 16.8007 3C18.9839 3 20.7538 4.77521 20.7538 6.96503ZM16.2743 18.0746C16.4603 18.4295 16.8173 18.6713 17.218 18.6713H21.0227C22.5376 18.6713 23.8138 17.3981 23.2355 15.9979C22.8855 15.1503 22.3724 14.3802 21.7257 13.7314C21.0789 13.0827 20.3111 12.5682 19.4661 12.2171C18.621 11.866 17.7153 11.6853 16.8007 11.6853C15.886 11.6853 14.9803 11.866 14.1353 12.2171C13.2902 12.5682 12.5224 13.0827 11.8757 13.7314C11.7216 13.886 11.791 14.1437 11.9939 14.2239C12.0378 14.2413 12.0816 14.2591 12.1253 14.2772C13.1272 14.6935 14.0376 15.3036 14.8045 16.0727C15.393 16.6631 15.8882 17.3383 16.2743 18.0746Z" fill="#172943"/>
</svg>
