<svg width="26" height="26" viewBox="0 0 26 26" fill="none" xmlns="http://www.w3.org/2000/svg">
<path fill-rule="evenodd" clip-rule="evenodd" d="M18.3412 6.97939C18.6174 6.5011 18.4535 5.88951 17.9752 5.61337L16.9093 4.99798C16.431 4.72183 15.8194 4.88571 15.5433 5.364L15.1176 6.10138C14.8894 6.49653 14.4236 6.67883 13.9725 6.61029C13.8866 6.59725 13.8007 6.58597 13.7147 6.57645C13.2611 6.52621 12.8582 6.22953 12.74 5.7887L12.5196 4.96591C12.3766 4.43244 11.8283 4.11586 11.2948 4.25881L10.106 4.57736C9.57255 4.72031 9.25597 5.26865 9.39892 5.80212L9.61938 6.62486C9.73751 7.0657 9.53689 7.52411 9.16918 7.79444C9.09947 7.84568 9.03069 7.89842 8.96288 7.95263C8.6065 8.23755 8.11191 8.3126 7.71677 8.08446L6.97934 7.65871C6.50105 7.38257 5.88946 7.54644 5.61332 8.02473L4.99793 9.09062C4.72178 9.56891 4.88566 10.1805 5.36395 10.4566L6.10138 10.8824C6.49652 11.1105 6.67882 11.5764 6.61027 12.0275C6.59722 12.1133 6.58594 12.1992 6.57642 12.2852C6.52616 12.7388 6.22947 13.1418 5.78864 13.2599L4.9659 13.4804C4.43242 13.6233 4.11583 14.1716 4.25878 14.7051L4.57736 15.894C4.7203 16.4274 5.26863 16.744 5.80209 16.6011L6.62491 16.3806C7.06573 16.2625 7.52412 16.4631 7.79442 16.8308C7.84564 16.9005 7.89835 16.9693 7.95255 17.0371C8.23745 17.3935 8.31252 17.8881 8.08438 18.2832L7.65866 19.0206C7.38251 19.4989 7.54639 20.1105 8.02468 20.3866L9.09057 21.002C9.56886 21.2782 10.1805 21.1143 10.4566 20.636L10.8823 19.8986C11.1105 19.5035 11.5763 19.3212 12.0274 19.3897C12.1133 19.4028 12.1992 19.414 12.2852 19.4236C12.7388 19.4738 13.1417 19.7705 13.2599 20.2113L13.4803 21.0341C13.6233 21.5676 14.1716 21.8841 14.7051 21.7412L15.8939 21.4226C16.4273 21.2797 16.7439 20.7314 16.601 20.1979L16.3805 19.3751C16.2624 18.9343 16.463 18.4759 16.8307 18.2056C16.9004 18.1543 16.9692 18.1016 17.037 18.0474C17.3934 17.7624 17.888 17.6874 18.2831 17.9155L19.0206 18.3413C19.4988 18.6174 20.1104 18.4536 20.3866 17.9753L21.002 16.9094C21.2781 16.4311 21.1142 15.8195 20.6359 15.5434L19.8985 15.1176C19.5034 14.8895 19.3211 14.4236 19.3896 13.9725C19.4027 13.8867 19.4139 13.8008 19.4235 13.7148C19.4737 13.2612 19.7704 12.8582 20.2112 12.7401L21.034 12.5196C21.5675 12.3767 21.8841 11.8284 21.7411 11.2949L21.4226 10.1061C21.2797 9.57263 20.7313 9.25604 20.1979 9.39898L19.3751 9.61944C18.9342 9.73756 18.4758 9.53695 18.2055 9.16924C18.1543 9.09953 18.1016 9.03074 18.0473 8.96292C17.7624 8.60653 17.6874 8.11192 17.9155 7.71677L18.3412 6.97939ZM11.7884 15.0985C12.9474 15.7676 14.4293 15.3705 15.0984 14.2115C15.7675 13.0526 15.3704 11.5707 14.2115 10.9015C13.0525 10.2324 11.5706 10.6295 10.9015 11.7885C10.2324 12.9474 10.6295 14.4293 11.7884 15.0985Z" fill="white"/>
</svg>
