<svg width="26" height="26" viewBox="0 0 26 26" fill="none" xmlns="http://www.w3.org/2000/svg">
<path d="M16 5.5C16 6.88071 14.8807 8 13.5 8C12.1193 8 11 6.88071 11 5.5C11 4.11929 12.1193 3 13.5 3C14.8807 3 16 4.11929 16 5.5Z" fill="#172943"/>
<path d="M16 13C16 14.3807 14.8807 15.5 13.5 15.5C12.1193 15.5 11 14.3807 11 13C11 11.6193 12.1193 10.5 13.5 10.5C14.8807 10.5 16 11.6193 16 13Z" fill="#172943"/>
<path d="M16 20.5C16 21.8807 14.8807 23 13.5 23C12.1193 23 11 21.8807 11 20.5C11 19.1193 12.1193 18 13.5 18C14.8807 18 16 19.1193 16 20.5Z" fill="#172943"/>
</svg>
