<svg fill="none" xmlns="http://www.w3.org/2000/svg">
<path d="M12.3596 10.2805L9.42645 7.34738C9.03593 6.95686 9.03593 6.32369 9.42645 5.93317L12.3596 3.00001" stroke-width="2" stroke-linecap="round"/>
<path d="M11.0044 6.46895C12.6249 6.03474 14.3458 6.17585 15.8739 6.86824C17.4021 7.56062 18.6428 8.76144 19.3848 10.2661C20.1269 11.7707 20.3242 13.4861 19.9432 15.12C19.5623 16.7538 18.6266 18.205 17.2956 19.2263C15.9647 20.2476 14.3207 20.7758 12.644 20.7209C10.9672 20.666 9.36135 20.0314 8.10001 18.9253C6.83868 17.8191 5.99991 16.3098 5.72663 14.6546C5.45335 12.9993 5.76245 11.3005 6.60128 9.8476" stroke-width="2" stroke-linecap="round"/>
</svg>
