<svg width="26" height="26" viewBox="0 0 26 26" fill="none" xmlns="http://www.w3.org/2000/svg">
<path d="M11.3929 4C10.6828 4 10.1071 4.58547 10.1071 5.30769V11.0917C10.1071 11.4528 9.81933 11.7456 9.46429 11.7456H8.64313C8.08887 11.7456 7.7944 12.4112 8.16205 12.8331L12.0378 17.2805C12.5494 17.8676 13.4506 17.8676 13.9622 17.2805L17.838 12.8331C18.2056 12.4112 17.9111 11.7456 17.3569 11.7456H16.5357C16.1807 11.7456 15.8929 11.4528 15.8929 11.0917V5.30769C15.8929 4.58547 15.3172 4 14.6071 4H11.3929Z" fill="#172943"/>
<path d="M10.3838 17.7308C10.9244 17.7308 11.4401 17.9615 11.8054 18.3668L12.0522 18.6407C12.5618 19.2061 13.4382 19.2061 13.9478 18.6407L14.1946 18.3668C14.5599 17.9615 15.0756 17.7308 15.6162 17.7308H20.3929C21.2805 17.7308 22 18.4626 22 19.3654C22 20.2682 21.2805 21 20.3929 21H5.60714C4.71954 21 4 20.2682 4 19.3654C4 18.4626 4.71954 17.7308 5.60714 17.7308H10.3838Z" fill="#172943"/>
</svg>
