<svg width="26" height="26" viewBox="0 0 26 26" fill="none" xmlns="http://www.w3.org/2000/svg">
<path fill-rule="evenodd" clip-rule="evenodd" d="M17.8484 17.4868C14.2229 21.0296 8.3447 21.0296 4.71916 17.4868C1.09361 13.9439 1.09361 8.19992 4.71916 4.65711C8.3447 1.1143 14.2229 1.1143 17.8484 4.65711C21.3106 8.04031 21.4666 13.4309 18.3163 16.9949C18.3226 17.0002 18.3287 17.0058 18.3347 17.0116L24.8993 23.4264C25.0336 23.5576 25.0336 23.7704 24.8993 23.9016C24.765 24.0328 24.5473 24.0328 24.413 23.9016L17.8484 17.4868ZM17.3621 5.13228C20.7191 8.41266 20.7191 13.7312 17.3621 17.0116C14.0052 20.292 8.56241 20.292 5.20542 17.0116C1.84844 13.7312 1.84844 8.41266 5.20542 5.13228C8.56241 1.8519 14.0052 1.8519 17.3621 5.13228Z" fill="#172943" stroke="#172943" stroke-linecap="round"/>
</svg>
