<svg width="64" height="64" viewBox="0 0 64 64" fill="none" xmlns="http://www.w3.org/2000/svg">
<path d="M33.3647 14.0276C32.1947 14.0276 31.0519 14.1474 29.9472 14.3758L21.2916 4.66893C20.4963 3.77702 19.1015 3.77702 18.3061 4.66893L7.41005 16.8883C6.8353 17.5329 7.29283 18.5539 8.15642 18.5539H11.8619C12.4142 18.5539 12.8619 19.0016 12.8619 19.5539L12.8619 23.855C8.21946 25.9964 5 30.671 5 36.0931C5 43.5404 11.0736 49.5776 18.5657 49.5776L30.5478 49.5775L38.3465 58.3233C39.1418 59.2152 40.5366 59.2152 41.3319 58.3233L49.339 49.3438C54.9968 48.2302 59.2626 43.2698 59.2626 37.3189C59.2626 31.405 55.0496 26.4692 49.4441 25.3152C46.9266 18.7068 40.6764 14.0276 33.3647 14.0276Z" stroke="#172943" stroke-width="4"/>
<ellipse cx="33.3647" cy="31.8076" rx="17.2654" ry="17.7749" fill="#3880F8"/>
<rect x="18.5657" y="38.5499" width="29.5978" height="11.0327" fill="#3880F8"/>
<ellipse cx="46.9302" cy="37.324" rx="12.3324" ry="12.2586" fill="#3880F8"/>
<path d="M26.7359 34.7111C26.7359 35.8156 25.8404 36.7111 24.7359 36.7111L14.8619 36.7111C13.7573 36.7111 12.8619 35.8156 12.8619 34.7111L12.8619 19.5589C12.8619 19.0066 12.4142 18.5589 11.8619 18.5589L8.15642 18.5589C7.29283 18.5589 6.8353 17.5379 7.41005 16.8934L18.3061 4.67398C19.1015 3.78208 20.4963 3.78208 21.2916 4.67398L32.1877 16.8934C32.7624 17.5379 32.3049 18.5589 31.4413 18.5589L27.7359 18.5589C27.1836 18.5589 26.7359 19.0066 26.7359 19.5589L26.7359 34.7111Z" fill="white"/>
<ellipse cx="18.5657" cy="36.0982" rx="13.5657" ry="13.4844" fill="#3880F8"/>
<path d="M32.9022 30.1301C32.9022 29.0255 33.7976 28.1301 34.9022 28.1301H44.7762C45.8808 28.1301 46.7762 29.0255 46.7762 30.1301V43.4434C46.7762 43.9957 47.2239 44.4434 47.7762 44.4434H51.4816C52.3452 44.4434 52.8028 45.4644 52.228 46.109L41.3319 58.3284C40.5366 59.2203 39.1418 59.2203 38.3465 58.3284L27.4504 46.109C26.8756 45.4644 27.3331 44.4434 28.1967 44.4434H31.9022C32.4545 44.4434 32.9022 43.9957 32.9022 43.4434V30.1301Z" fill="white"/>
</svg>
